<svg preserveAspectRatio="none" width="100%" height="100%" overflow="visible" style="display: block;" viewBox="0 0 200 200" fill="none" xmlns="http://www.w3.org/2000/svg">
<g id="achievement and success _ checkmark, approve, verify, verified, sticker, badge">
<path id="Vector" d="M190.923 116.15C190.372 114.897 189.32 113.881 188.37 112.935C186.99 111.56 186.028 109.958 184.71 108.555C181.282 104.907 176.807 100.212 176.715 94.8748C176.658 91.6172 176.856 89.246 178.793 86.572C180.48 84.2438 181.468 81.5526 182.938 79.1311C185.659 74.6494 190.645 69.9763 189.276 64.1562C188.8 62.1329 184.674 60.4822 182.839 59.6679C180.882 58.7991 179.59 58.3991 178.104 56.8952C177.012 55.7901 176.072 54.8397 174.685 54.1044C171.921 52.6394 168.993 51.8441 166.46 49.9394C165.443 49.1745 164.671 48.7839 163.545 48.1957C161.377 47.0638 161.417 45.1861 161.455 42.9846C161.526 38.7243 161.644 34.3922 161.5 30.1336C161.372 26.377 157.982 24.9215 155.34 22.8684C153.917 21.7624 153.073 20.9122 151.178 20.771C150.027 20.6853 148.767 20.7891 147.609 20.8044C144.28 20.8483 140.736 22.4334 138.002 24.3029C135.893 25.7439 133.567 26.3339 130.962 26.368C127.663 26.4113 125.671 26.7707 123.718 23.608C121.976 20.7857 119.766 18.6458 117.416 16.3111C115.366 14.2735 114.5 11.5896 112.21 9.84284C109.721 7.94444 107.544 7.37116 104.562 6.96544C103.227 6.7836 102.14 6.18114 100.78 6.184C97.8936 6.18972 94.0241 6.97116 91.2282 7.8122C87.7179 8.86772 85.982 11.0776 83.6325 13.6905C81.3096 16.2738 78.4467 17.6077 75.8426 19.7867C75.0144 20.48 74.2675 21.0843 73.3756 21.6822C71.5887 22.8806 70.8372 22.9198 68.5641 22.9061C65.533 22.888 63.2575 22.1698 60.355 21.3241C58.1227 20.6736 54.8998 19.5336 52.5312 20.0773C50.3287 20.5828 48.2364 23.0876 46.6552 24.6306C44.518 26.7172 43.7923 29.6044 42.9914 32.46C42.3359 34.7986 42.2204 37.1937 41.4498 39.5184C41.1334 40.4734 40.9816 41.394 40.8845 42.3152L44.1425 36.1612C44.18 38.5392 44.2564 40.9199 44.2315 43.2822C44.2053 45.783 43.1465 47.6237 42.3155 49.9578C41.2061 53.0723 40.0094 54.1962 37.442 56.2016C36.3701 57.0385 35.5122 58.3171 34.3578 59.0286C33.4648 59.5792 32.3705 59.7298 31.3839 60.0159C30.4753 60.2794 29.5267 60.7963 28.6157 60.9974C27.6002 61.2212 26.5275 60.9694 25.4912 61.0419C23.6418 61.171 21.7307 61.7668 19.9821 62.2749C18.7637 62.629 17.5747 62.5709 16.4563 63.2823C15.0938 64.1493 13.7726 65.7336 12.6873 66.8954C11.5056 68.1601 11.0199 70.4167 10.9089 72.1602C10.7558 74.5672 10.546 77.6123 10.8758 79.9791C11.2922 82.9722 14.3738 85.5633 16.2131 87.7943C18.1298 90.1183 21.6393 92.7832 22.614 95.7673C23.3156 97.9165 22.6915 100.95 22.716 103.222C22.7323 104.69 22.9189 106.096 22.0907 107.403C21.1621 108.868 19.0645 110.212 17.7788 111.355C16.6906 112.321 15.291 113.166 14.5371 114.44C13.7877 115.707 13.4849 117.325 12.8359 118.655C11.5126 121.366 11.5665 123.247 11.6236 126.306C11.6538 127.932 11.4726 128.378 12.9567 129.584C14.024 130.452 15.1028 131.289 16.16 132.164C18.9396 134.467 22.9499 135.276 26.0851 136.844C27.019 137.311 27.6377 137.777 28.6088 138.15C29.6353 138.545 30.7419 138.936 31.7374 139.434C33.766 140.449 37.3334 142.17 38.3016 144.295C38.8126 145.416 38.6102 146.522 38.8265 147.722C39.1546 149.534 39.3832 150.957 39.3661 152.8C39.3391 155.749 39.3783 158.7 39.3685 161.649C39.3571 165.22 39.5008 167.816 42.4849 170.297C44.6604 172.104 47.7997 174.357 50.6205 174.85C52.7083 175.214 54.6471 175.535 56.8308 175.526C58.3117 175.52 60.2056 175.872 61.6203 175.388C63.0244 174.907 63.7167 174.179 65.3249 174.113C67.2375 174.034 68.851 173.624 70.7282 173.293C72.1193 173.048 73.2474 172.489 74.725 172.747C77.0091 173.146 79.2275 175.213 80.8908 176.775C83.1913 178.936 85.833 180.173 88.2432 182.116C90.291 183.766 92.0971 185.73 94.516 186.921C99.1581 189.206 105.859 188.253 110.505 186.702C113.028 185.86 114.293 184.136 116.375 182.62C118.716 180.915 121.246 179.199 123.623 177.591C129.346 173.72 135.383 176.867 141.429 177.673C147.994 178.549 156.224 180.219 160.114 173.425C160.885 172.079 162.322 170.577 162.751 169.094C163.048 168.067 162.864 166.892 162.855 165.832C162.838 163.668 163.21 161.138 162.701 159.028C162.046 156.31 162.518 153.721 162.188 150.933C162.066 149.902 161.552 149.023 161.421 147.98C161.111 145.513 162.452 143.798 164.224 142.26C166.765 140.053 169.519 138.44 172.586 137.18C175.019 136.18 177.83 136.308 180.197 135.148C181.567 134.476 182.556 133.344 183.802 132.514C185.207 131.578 186.68 131.046 187.842 129.772C189.682 127.755 190.256 125.386 190.757 122.853C191.177 120.736 191.845 118.243 190.923 116.15ZM147.65 89.2706C146.914 90.1892 145.519 91.0364 144.697 91.9413C144.017 92.689 143.54 93.4305 142.764 94.1291C140.883 95.8216 138.82 97.7289 136.771 99.1928C135.385 100.183 134.061 101.338 132.526 102.166C130.358 103.335 129.796 104.882 128.07 106.497C125.288 109.098 121.853 111.183 118.902 113.618C116.152 115.886 112.929 117.69 110.273 120.085C107.413 122.663 104.763 125.529 101.753 127.94C100.194 129.19 99.0389 130.03 97.732 131.523C96.2234 133.248 94.4013 133.849 92.5486 135.118C91.0727 136.129 91.0004 136.768 89.2265 136.216C87.5677 135.701 86.1456 134.627 84.7236 133.669C81.8284 131.719 78.9047 129.826 75.9508 127.977C71.9242 125.458 68.4964 121.21 65.1587 117.856C63.4228 116.112 56.2668 111.373 56.6782 108.611C56.8676 107.337 59.2835 105.815 60.1823 105.064C61.4869 103.975 62.4661 102.497 63.7657 101.407C65.3179 100.105 67.2069 99.2523 68.8294 98.0116C70.027 97.0957 71.4768 95.993 73.1234 96.3691C74.6307 96.7134 75.7565 98.3832 76.8148 99.4439C78.6594 101.293 80.5088 103.138 82.3553 104.985C83.6566 106.286 84.9121 107.697 86.2746 108.93C86.7105 109.325 88.9497 111.384 89.5424 111.436C90.5853 111.527 93.1106 108.614 93.8747 107.892C95.0796 106.754 96.2168 105.523 97.3825 104.346C101.079 100.615 105.159 97.362 108.838 93.6233C114.377 87.9953 120.127 82.6483 125.695 77.0469C128.874 73.8495 132.197 70.9766 135.39 67.7898L136.106 69.9382C138.429 70.068 139.83 72.6977 141.187 74.1469C142.414 75.4573 144.543 76.752 145.291 78.4945C145.759 79.5845 145.544 80.8186 146.094 81.9552C146.454 82.6984 147.081 83.2878 147.421 84.0615C148.141 85.696 148.831 87.7945 147.65 89.2706Z" fill="var(--fill-0, #3375FF)"/>
<path id="Vector_2" d="M195.254 113.619C194.191 111.375 192.172 109.848 190.647 107.953C190.477 107.742 189.745 106.853 190.655 107.975C190.287 107.521 189.941 107.047 189.581 106.586C189.224 106.129 188.861 105.676 188.473 105.244C187.832 104.529 187.158 103.843 186.511 103.133C185.842 102.398 185.186 101.65 184.559 100.877C184.441 100.731 183.893 100.043 184.416 100.706C184.939 101.369 184.4 100.676 184.289 100.523C183.979 100.097 183.681 99.6623 183.399 99.2179C183.12 98.7782 182.855 98.3291 182.612 97.8688C182.524 97.7031 182.438 97.536 182.356 97.3675C182.123 96.8895 182.158 96.392 182.408 97.5465C182.194 96.5594 181.775 95.6565 181.631 94.6364C181.691 95.0809 181.75 95.5253 181.81 95.9698C181.633 94.4224 181.68 92.8064 181.887 91.2637C181.827 91.7082 181.767 92.1526 181.708 92.5971C181.786 92.0895 181.885 91.5874 182.03 91.0941C182.1 90.8579 182.236 90.6 182.278 90.3598C182.176 90.5968 182.075 90.8338 181.974 91.0708C182.048 90.9062 182.126 90.7438 182.208 90.5835C182.764 89.5009 183.545 88.5539 184.158 87.5045C185.398 85.3835 186.329 83.0983 187.666 81.0309C190.075 77.3032 193.181 73.8824 194.138 69.405C194.738 66.6 194.807 63.1978 193.149 60.719C191.756 58.6361 189.564 57.2647 187.337 56.2153C185.673 55.4312 183.868 54.8513 182.297 53.8894C182.156 53.803 182.022 53.7071 181.882 53.6198C181.074 53.1164 182.769 54.4671 182.071 53.7496C181.658 53.3248 181.225 52.9099 180.798 52.4987C179.722 51.4631 178.532 50.4882 177.217 49.7735C174.7 48.406 171.903 47.6119 169.521 45.9873C168.475 45.2739 167.47 44.6036 166.351 44.0081C166.158 43.9053 165.824 43.637 165.614 43.5906C166.285 44.1415 166.437 44.2501 166.07 43.9163C165.729 43.5406 165.851 43.7085 166.437 44.4198L166.327 44.2382C166.097 43.7892 166.18 43.9965 166.573 44.8599C166.534 44.5835 166.42 44.3032 166.372 44.0237C166.432 44.4681 166.492 44.9126 166.552 45.357C166.329 43.7012 166.488 41.9776 166.518 40.3138C166.556 38.2273 166.589 36.1406 166.583 34.0537C166.576 31.9238 166.701 29.6264 166.159 27.5515C165.647 25.5939 164.461 23.7693 162.994 22.3941C161.726 21.207 160.254 20.2504 158.84 19.2502C158.588 19.0714 158.283 18.9002 158.062 18.6831C158.093 18.7138 159.09 19.4881 158.455 18.9815C158.32 18.8743 158.185 18.7676 158.05 18.6615C157.22 18.011 156.411 17.325 155.458 16.8622C153.207 15.7696 150.867 15.6865 148.412 15.7677C146.283 15.8382 144.159 16.048 142.126 16.7184C139.974 17.4278 137.864 18.4109 135.961 19.6453C135.542 19.9171 135.135 20.2052 134.702 20.4545C134.53 20.5533 134.355 20.6475 134.179 20.7369C134.047 20.804 133.915 20.8676 133.78 20.9277C133.429 21.087 133.604 21.013 134.304 20.7056C133.97 20.6885 133.389 21.0153 133.052 21.102C132.526 21.2376 131.995 21.332 131.457 21.4068C131.901 21.3471 132.346 21.2874 132.79 21.2277C131.105 21.4263 129.28 21.5021 127.588 21.3153C128.033 21.375 128.477 21.4347 128.922 21.4945C128.539 21.4416 128.184 21.3197 127.81 21.2451C129.013 21.4847 128.832 21.7298 128.318 21.4401C127.832 21.1655 127.86 20.8547 128.676 21.7668C128.531 21.6052 128.347 21.4709 128.198 21.3112C127.705 20.7843 128.133 20.7679 128.358 21.5471C128.188 20.9607 127.527 20.2566 127.171 19.7604C125.462 17.3786 123.49 15.2746 121.416 13.2142C121.032 12.8325 120.635 12.2242 120.2 11.9188L120.638 12.4922C120.526 12.3436 120.417 12.1935 120.31 12.0417C120.15 11.8157 119.995 11.5859 119.841 11.3556C118.99 10.0847 118.15 8.82384 117.16 7.65194C115.255 5.3977 112.429 3.8377 109.658 2.9241C108.625 2.58366 107.555 2.37502 106.482 2.2127C105.204 2.01958 103.994 1.59404 102.724 1.38546C99.6954 0.88836 96.5497 1.44168 93.5732 2.0533C90.9635 2.58956 88.2513 3.27866 85.9737 4.70908C83.8287 6.05612 82.1324 7.85366 80.462 9.72378C79.9925 10.2493 79.5164 10.7635 78.9957 11.2393C78.7731 11.4427 78.5449 11.6398 78.3128 11.8322C78.1594 11.959 78.0044 12.0838 77.8477 12.2064C78.4725 11.7267 78.5743 11.6442 78.1532 11.959C77.0212 12.7532 75.8706 13.5249 74.7524 14.3385C73.9153 14.9476 73.0959 15.5828 72.296 16.2401C72.0526 16.4401 71.8077 16.6395 71.5665 16.8422C71.1508 17.173 71.2484 17.1007 71.8593 16.6255C71.6958 16.7496 71.5306 16.8715 71.3637 16.9911C70.8445 17.3627 70.3092 17.6857 69.7562 18.0018C68.9942 18.4373 71.0028 17.6093 70.194 17.8102C69.9387 17.8736 69.6919 17.9409 69.4316 17.9841C69.876 17.9244 70.3205 17.8647 70.7649 17.805C69.2102 18.0073 67.5813 17.9115 66.0328 17.7048C66.4773 17.7646 66.9217 17.8243 67.3662 17.884C61.2263 16.9671 55.0898 13.0948 48.9482 16.1342C47.508 16.847 46.231 17.9875 45.0823 19.0986C44.1746 19.9766 43.2186 20.8704 42.4169 21.8463C40.2096 24.5331 39.1091 27.6727 38.1949 30.9837C37.7232 32.6923 37.5074 34.4472 37.1413 36.1781C36.9631 37.0209 36.702 37.8319 36.4697 38.6595C36.1361 39.8483 36.0064 41.0928 35.8689 42.3151C35.7497 43.3744 36.3314 44.5589 36.9458 45.3541C37.5861 46.1829 38.5009 46.9123 39.5511 47.1516C41.6607 47.6321 44.1496 46.8596 45.2153 44.8466C46.3013 42.7953 47.3873 40.7439 48.4733 38.6926C45.3578 37.8488 42.2424 37.005 39.1269 36.1612C39.1724 38.9107 39.4803 41.8012 39.1152 44.5331C39.1749 44.0886 39.2346 43.6442 39.2943 43.1997C38.9471 45.2797 37.9846 47.1815 37.2821 49.1539C36.946 50.0977 37.818 48.0734 37.3822 48.9049C37.2907 49.0795 37.2094 49.2592 37.116 49.433C36.9239 49.7903 36.7042 50.1242 36.4802 50.4616C36.057 51.0992 37.2055 49.6137 36.811 50.0296C36.6898 50.1574 36.5799 50.2968 36.4593 50.4256C36.1817 50.7221 35.8864 51.0012 35.5833 51.2714C34.9033 51.8779 34.1518 52.4002 33.4769 53.0109C33.1279 53.3266 32.8088 53.6739 32.4827 54.0127C32.2861 54.2169 32.0904 54.4225 31.8857 54.6188C31.7425 54.7561 31.0831 55.2945 31.7629 54.7716C32.5461 54.1691 31.6074 54.773 31.5781 54.8383C32.3032 54.5563 32.4839 54.4808 32.1202 54.6119C31.9855 54.6616 31.8491 54.706 31.711 54.7452C31.2527 54.8824 30.7835 54.9789 30.3221 55.1043C29.1839 55.4135 28.1433 56.0099 26.9761 56.2145C27.4205 56.1548 27.865 56.0951 28.3094 56.0354C27.3679 56.1266 26.4328 55.97 25.4912 56.0262C24.0543 56.1119 22.5989 56.3693 21.202 56.7206C20.2933 56.949 19.4032 57.2434 18.4968 57.4787C17.5575 57.7226 16.6031 57.8102 15.6879 58.1487C13.2402 59.054 11.4275 60.8508 9.70218 62.7379C8.14352 64.4427 6.98072 66.2628 6.41886 68.5325C5.91238 70.5785 5.83226 72.7359 5.73872 74.8345C5.6418 77.0088 5.6843 79.1598 6.03944 81.3124C6.7046 85.3442 9.99858 88.2004 12.5105 91.1541C13.7097 92.5642 15.0614 93.8229 16.3153 95.1822C16.6289 95.5222 16.9292 95.8724 17.2288 96.2245C17.7554 96.8437 16.9793 95.882 16.9461 95.8504C17.1266 96.0227 17.2629 96.291 17.399 96.5028C17.6274 96.8582 17.7827 97.2689 18.0152 97.6158C17.3792 96.6669 17.6639 96.7199 17.8152 97.2265C17.9058 97.53 17.9641 97.837 18.0145 98.1493C17.9548 97.7049 17.8951 97.2604 17.8353 96.816C18.021 98.2941 17.8858 99.7744 17.7832 101.253C17.6812 102.724 17.8233 104.208 17.6741 105.671C17.7338 105.226 17.7936 104.782 17.8533 104.338C17.8402 104.422 17.6332 105.185 17.6586 105.216C17.5952 105.139 18.1561 104.078 17.6931 104.971C17.4189 105.5 18.5957 103.999 17.9337 104.643C17.7739 104.798 17.6262 104.966 17.4652 105.121C16.7273 105.83 15.9059 106.445 15.1069 107.082C13.3199 108.507 11.4011 109.915 10.2064 111.909C9.5196 113.055 9.09896 114.369 8.6629 115.628C8.57944 115.869 8.48462 116.108 8.40682 116.351C8.193 117.018 8.95104 115.188 8.50514 116.123C8.10362 116.965 7.72432 117.827 7.41454 118.706C6.67062 120.817 6.56182 123.14 6.59154 125.361C6.60204 126.145 6.58704 126.937 6.64924 127.72C6.79492 129.551 7.41402 131.09 8.6768 132.452C9.40172 133.234 10.3194 133.861 11.1495 134.525C12.3328 135.47 13.4765 136.494 14.754 137.312C16.7144 138.568 18.9663 139.364 21.1346 140.181C21.5794 140.349 22.0247 140.515 22.4674 140.688C22.6858 140.774 22.9027 140.863 23.1208 140.949C23.7539 141.2 21.9227 140.4 22.8156 140.825C23.8167 141.303 24.7604 141.887 25.7659 142.353C26.6324 142.754 27.5284 143.078 28.418 143.421C28.6592 143.514 28.8987 143.611 29.1395 143.705C29.4937 143.85 29.3316 143.782 28.6532 143.503C28.8393 143.586 29.0236 143.673 29.206 143.764C30.0366 144.171 30.8632 144.591 31.6685 145.046C32.1186 145.3 32.5628 145.565 32.994 145.85C33.1372 145.945 33.277 146.044 33.4189 146.14C34.1371 146.628 32.4229 145.273 33.3852 146.126C33.5039 146.231 33.6209 146.339 33.7333 146.451C33.8812 146.599 34.5487 147.408 33.9302 146.623C33.3249 145.855 33.7751 146.532 33.8816 146.645C33.5709 145.827 33.5038 145.692 33.6801 146.239C33.7311 146.441 33.7692 146.644 33.7942 146.851C33.7345 146.406 33.6747 145.962 33.615 145.517C33.8165 147.449 34.0882 149.354 34.3515 151.278C34.2918 150.833 34.232 150.389 34.1723 149.944C34.3936 151.719 34.3406 153.493 34.341 155.278C34.3415 157.106 34.3554 158.935 34.3546 160.764C34.3532 164.112 34.4324 167.483 36.1282 170.48C36.986 171.996 38.2051 173.266 39.5547 174.345C40.9873 175.491 42.4502 176.622 44.0367 177.549C47.4581 179.549 51.2376 180.216 55.1507 180.485C56.9052 180.606 58.8011 180.774 60.5539 180.622C62.1808 180.481 63.3252 180.125 64.8007 179.461C65.1322 179.312 65.5111 179.171 65.818 178.976C64.739 179.662 64.9055 179.302 65.2952 179.202C65.5516 179.137 65.7986 179.059 66.0601 179.008C65.6156 179.068 65.1712 179.128 64.7267 179.188C66.5888 178.943 68.4513 178.816 70.3037 178.461C71.7302 178.188 73.1501 177.798 74.5812 177.568C74.1368 177.628 73.6923 177.688 73.2479 177.747C73.6416 177.702 74.0182 177.692 74.4137 177.719C73.9692 177.66 73.5248 177.6 73.0803 177.54C73.5157 177.601 74.0184 177.865 74.4396 177.878C74.2126 177.783 73.9855 177.689 73.7585 177.594C73.9316 177.676 74.1018 177.763 74.2692 177.856C74.4397 177.951 74.6073 178.051 74.7722 178.155C75.0247 178.313 75.2636 178.488 75.5094 178.655C75.9584 178.961 75.5424 178.977 75.2068 178.419C75.4478 178.82 76.1914 179.255 76.5391 179.573C78.2959 181.177 80.1334 182.634 82.1238 183.943C82.9896 184.512 83.8626 185.071 84.7028 185.678L84.9571 185.864C85.3818 186.184 85.295 186.116 84.6968 185.662C84.7094 185.723 85.157 186.041 85.1654 186.048C85.6316 186.438 86.0863 186.842 86.5433 187.243C88.3233 188.805 90.1725 190.425 92.343 191.419C96.9271 193.517 101.808 193.549 106.707 192.784C108.539 192.498 110.38 192.073 112.124 191.437C114.601 190.534 116.502 189.025 118.481 187.325C118.657 187.175 118.836 187.029 119.011 186.877C119.755 186.231 118.14 187.494 118.906 186.951C119.457 186.56 120.002 186.16 120.553 185.77C121.624 185.013 122.703 184.269 123.786 183.529C124.846 182.806 125.892 182.016 127.015 181.393C127.252 181.262 127.497 181.152 127.736 181.028C128.086 180.868 127.927 180.936 127.262 181.231C127.454 181.159 127.647 181.094 127.843 181.033C128.417 180.857 129.003 180.738 129.596 180.65C129.152 180.71 128.707 180.77 128.263 180.829C129.649 180.66 131.023 180.716 132.405 180.894C131.961 180.834 131.516 180.774 131.072 180.715C134.631 181.219 138.081 182.239 141.651 182.719C141.207 182.659 140.762 182.599 140.318 182.539C145.453 183.237 150.978 184.332 156.057 182.671C159.259 181.623 161.769 179.728 163.749 177.023C164.557 175.919 165.294 174.734 166.059 173.599C167.238 171.849 167.899 169.895 167.933 167.777C167.961 166.093 167.918 164.415 167.969 162.728C168.035 160.543 167.589 158.492 167.295 156.345C167.355 156.789 167.415 157.234 167.475 157.678C167.281 155.949 167.38 154.216 167.317 152.482C167.274 151.321 167.183 150.125 166.91 148.996C166.718 148.201 166.39 147.459 166.258 146.647C166.317 147.091 166.377 147.535 166.437 147.98C166.391 147.526 166.387 147.089 166.432 146.636C166.373 147.08 166.313 147.525 166.253 147.969C166.305 147.634 166.382 147.322 166.478 146.998C166.629 146.489 166.79 146.95 166.258 147.519C166.346 147.425 166.435 147.192 166.497 147.09C166.561 146.985 166.636 146.885 166.7 146.779C167.011 146.267 165.965 147.642 166.375 147.196C166.639 146.907 166.894 146.618 167.176 146.346C167.407 146.124 167.647 145.912 167.89 145.703C168.031 145.582 169.16 144.748 168.471 145.208C167.779 145.669 168.793 144.977 168.952 144.864C169.326 144.599 169.707 144.343 170.093 144.097C171.472 143.216 172.921 142.495 174.405 141.813C174.903 141.583 173.894 142.022 173.92 142.016C174.102 141.976 174.306 141.866 174.487 141.804C174.87 141.675 175.261 141.569 175.654 141.475C176.446 141.285 177.251 141.156 178.05 141.005C179.945 140.648 181.884 140.096 183.51 139.026C184.404 138.439 185.226 137.739 186.051 137.058C186.978 136.291 185.37 137.498 186.088 137.014C186.454 136.767 186.824 136.53 187.207 136.308C188.826 135.369 190.47 134.417 191.693 132.966C193.131 131.258 194.128 129.426 194.828 127.299C195.373 125.643 195.694 123.885 195.994 122.171C196.416 119.762 196.704 117.151 195.76 114.817C195.251 113.558 194.673 112.532 193.455 111.819C192.38 111.19 190.795 110.924 189.59 111.314C188.376 111.706 187.206 112.459 186.593 113.619C186.004 114.732 185.592 116.26 186.087 117.483C186.274 117.947 186.399 118.405 186.481 118.897C186.422 118.453 186.362 118.008 186.302 117.564C186.397 118.362 186.37 119.145 186.279 119.942C186.338 119.498 186.398 119.053 186.458 118.609C186.248 120.161 185.921 121.724 185.547 123.245C185.384 123.91 185.254 124.871 184.861 125.439C184.824 125.493 185.355 124.417 185.078 124.897C184.983 125.063 184.907 125.243 184.815 125.411C184.639 125.731 184.183 126.189 184.099 126.528C184.271 125.83 184.694 125.862 184.295 126.225C184.151 126.356 184.01 126.51 183.873 126.646C183.474 127.044 183.588 126.55 184.214 126.402C184.098 126.429 183.823 126.667 183.743 126.717C183.1 127.127 182.419 127.471 181.769 127.867C180.855 128.424 180.014 129.1 179.187 129.776C179.048 129.888 177.943 130.718 178.658 130.229C179.298 129.792 178.73 130.17 178.57 130.28C178.364 130.422 178.154 130.556 177.935 130.677C177.764 130.771 177.549 130.84 177.391 130.945C177.506 130.869 178.519 130.567 177.743 130.764C177.401 130.851 177.067 130.968 176.724 131.051C175.884 131.255 175.03 131.392 174.181 131.553C172.225 131.923 170.446 132.63 168.64 133.466C165.472 134.932 162.367 136.965 159.894 139.437C158.415 140.916 157.074 142.846 156.644 144.929C156.318 146.509 156.311 147.887 156.61 149.467C156.79 150.42 157.202 151.305 157.351 152.266C157.292 151.821 157.232 151.377 157.172 150.932C157.342 152.511 157.282 154.09 157.315 155.674C157.354 157.568 157.751 159.384 158.027 161.246C157.967 160.801 157.908 160.357 157.848 159.912C158.02 161.377 157.931 162.84 157.873 164.309C157.818 165.708 157.999 167.131 157.854 168.521C157.913 168.076 157.973 167.632 158.033 167.188C158.007 167.382 157.968 167.573 157.914 167.761C157.748 168.248 157.82 168.096 158.129 167.305C157.928 167.498 157.793 167.925 157.639 168.168C157.245 168.789 156.797 169.372 156.378 169.975C156.021 170.488 155.723 171.034 155.375 171.552C155.283 171.69 155.187 171.826 155.088 171.96C155.249 171.75 155.411 171.539 155.572 171.329C155.513 171.549 155.098 171.867 154.938 172.027C154.749 172.215 154.534 172.377 154.346 172.564C154.085 172.826 155.489 171.764 154.556 172.378C154.124 172.663 153.664 172.867 153.212 173.112C154.649 172.332 153.849 172.848 153.39 172.998C153.181 173.067 152.97 173.129 152.757 173.185C152.181 173.338 151.595 173.444 151.005 173.525C151.449 173.465 151.894 173.405 152.338 173.346C149.535 173.691 146.711 173.375 143.928 173.001C144.373 173.061 144.817 173.121 145.262 173.18C143.984 173.007 142.707 172.829 141.429 172.658C141.874 172.717 142.318 172.777 142.762 172.837C136.845 172.011 130.866 169.42 124.885 171.455C121.765 172.516 119.144 174.556 116.469 176.422C115.038 177.42 113.613 178.427 112.249 179.516C111.78 179.89 111.328 180.285 110.874 180.677C110.672 180.852 110.469 181.027 110.264 181.198C110.162 181.283 109.961 181.497 109.852 181.533C109.948 181.502 110.811 180.848 110.228 181.225C109.961 181.396 109.701 181.573 109.425 181.728C109.303 181.796 109.179 181.857 109.056 181.924C108.297 182.335 109.913 181.636 109.314 181.815C108.73 181.989 108.155 182.191 107.567 182.352C106.175 182.735 104.76 183.019 103.331 183.214C103.775 183.154 104.22 183.094 104.664 183.035C102.669 183.287 100.663 183.351 98.665 183.102C99.1094 183.162 99.5539 183.222 99.9983 183.281C99.2702 183.179 98.5489 183.043 97.8411 182.841C97.4954 182.743 97.1604 182.621 96.8207 182.505C96.3343 182.312 96.4892 182.378 97.2853 182.703C97.1117 182.623 96.9403 182.538 96.7711 182.449C96.064 182.078 95.4321 181.445 94.7205 181.12C95.3332 181.597 95.4334 181.669 95.021 181.338C94.8645 181.209 94.7091 181.079 94.5549 180.948C94.3231 180.751 94.094 180.551 93.865 180.35C91.1493 177.976 88.2256 176.007 85.266 173.963C84.9653 173.74 85.095 173.844 85.6549 174.272C85.4884 174.141 85.324 174.008 85.1618 173.871C84.8464 173.606 84.5448 173.327 84.2432 173.046C83.6825 172.524 83.121 172.004 82.531 171.515C80.796 170.077 79.1108 168.92 76.976 168.159C74.8692 167.407 72.6551 167.665 70.5373 168.196C68.9258 168.599 67.2611 168.9 65.616 169.131C66.0605 169.071 66.5049 169.012 66.9494 168.952C65.4362 169.142 63.8411 169.074 62.3973 169.615C61.6134 169.909 60.8392 170.257 60.0913 170.637C59.3518 171.013 61.0333 170.327 60.423 170.502C60.1125 170.591 59.8186 170.681 59.4983 170.736C59.9427 170.676 60.3872 170.617 60.8316 170.557C59.6292 170.703 58.4367 170.552 57.2329 170.517C55.8799 170.478 54.5524 170.427 53.2081 170.25C53.6525 170.309 54.097 170.369 54.5414 170.429C53.6774 170.308 52.8108 170.179 51.954 170.013C51.6033 169.945 51.2583 169.865 50.9165 169.76C50.74 169.706 50.565 169.647 50.3915 169.583C49.9024 169.393 50.0383 169.455 50.7991 169.768C50.185 169.326 49.3689 169.058 48.7144 168.658C48.0812 168.27 47.4673 167.851 46.8679 167.413C46.5556 167.185 45.7591 166.405 46.8629 167.423C46.6026 167.183 46.3023 166.979 46.0316 166.75C45.7432 166.506 45.4626 166.254 45.2001 165.982C45.0783 165.856 44.9603 165.727 44.8462 165.594C44.5176 165.194 44.6258 165.336 45.1707 166.019C45.0473 165.742 44.8217 165.487 44.6791 165.214C44.1017 164.111 44.9603 166.157 44.7408 165.37C44.5758 164.779 44.4298 164.203 44.3448 163.593C44.4045 164.038 44.4643 164.482 44.524 164.927C44.1851 162.102 44.3809 159.179 44.3738 156.34C44.3698 154.725 44.4445 153.096 44.3509 151.484C44.2449 149.659 43.8881 147.867 43.6136 146.064C43.6733 146.508 43.733 146.952 43.7927 147.397C43.5813 145.391 43.5394 143.511 42.5879 141.673C42.0056 140.548 41.0866 139.517 40.1026 138.718C38.2251 137.192 36.177 136.001 33.9949 134.97C33.138 134.565 32.256 134.206 31.3737 133.86C31.0864 133.747 30.7975 133.639 30.509 133.529C30.3673 133.475 30.2262 133.418 30.0831 133.367C29.5175 133.169 30.9138 133.817 30.3999 133.488C29.0479 132.622 27.521 131.996 26.0455 131.383C24.9494 130.928 23.8323 130.528 22.7253 130.1C22.4566 129.996 22.1894 129.889 21.9216 129.783C21.0848 129.452 22.876 130.219 22.0634 129.84C21.5057 129.58 20.952 129.317 20.4172 129.012C20.1336 128.85 19.8545 128.68 19.5834 128.497C19.4681 128.42 19.3576 128.334 19.2413 128.258C18.7323 127.926 20.1043 128.975 19.5743 128.509C18.9756 127.982 18.3304 127.502 17.7072 127.004C17.1308 126.544 16.5533 126.088 16.0027 125.598C15.9891 125.586 15.7673 125.361 15.77 125.359C15.8237 125.312 16.5008 126.461 16.2316 125.932C16.2309 125.931 16.583 127.058 16.583 126.769C16.583 126.66 16.518 126.493 16.5013 126.386C16.561 126.831 16.6207 127.275 16.6805 127.72C16.4964 125.897 16.5212 123.91 16.7615 122.095C16.7018 122.54 16.6421 122.984 16.5824 123.428C16.6421 123.043 16.7135 122.662 16.8105 122.284C16.887 121.985 17.2081 121.389 17.1856 121.105C17.1917 121.182 16.6517 122.263 17.0302 121.474C17.1189 121.289 17.208 121.104 17.2922 120.917C17.6363 120.153 17.9572 119.376 18.2354 118.586C18.3718 118.198 18.4977 117.807 18.638 117.421C18.6999 117.251 18.889 116.353 18.7223 117.173C18.5847 117.849 18.6578 117.345 18.7959 117.101L18.868 116.972C19.154 116.538 19.0545 116.652 18.5696 117.312C18.6698 117.263 18.8906 116.961 18.9505 116.901C19.2847 116.565 19.6521 116.264 20.0203 115.966C22.9738 113.58 26.7675 111.174 27.5032 107.152C27.8785 105.1 27.6884 103.027 27.8358 100.956C27.9844 98.8689 28.0857 96.7315 27.5257 94.6858C26.4862 90.8884 23.4546 88.1804 20.8322 85.4382C19.6425 84.1943 18.5139 82.8728 17.3726 81.5835C17.0636 81.2344 16.7677 80.8763 16.4707 80.5171C16.045 80.0023 17.2011 81.5828 16.6719 80.7597C16.5494 80.5692 16.4155 80.3863 16.2951 80.1941C16.1768 80.0054 16.063 79.8141 15.9577 79.6178C15.8596 79.435 15.5274 78.6875 15.8764 79.509C16.2339 80.3508 15.9179 79.5561 15.8697 79.3857C15.8007 79.1421 15.7533 78.8955 15.7123 78.6458C15.7721 79.0902 15.8318 79.5347 15.8915 79.9791C15.5209 77.1135 15.6589 74.0301 16.0242 71.1674C15.9645 71.6118 15.9048 72.0563 15.8451 72.5007C15.9483 71.7982 16.088 71.1013 16.3137 70.4268C16.3547 70.3007 16.3995 70.176 16.4482 70.0527C16.5894 69.6868 16.5067 69.8868 16.2002 70.6525C16.2741 70.5003 16.3543 70.3515 16.4407 70.2061C16.7216 69.7759 16.6004 69.9141 16.0771 70.6205C17.1402 69.7361 17.9368 68.5106 18.9921 67.5968C19.905 66.8063 18.196 68.0718 18.9879 67.6131C19.4713 67.3499 19.3557 67.3825 18.6411 67.711C18.8317 67.6455 19.0252 67.5901 19.2215 67.5447C19.9155 67.3775 20.6248 67.2961 21.3155 67.1113C22.9311 66.6791 24.5053 66.1695 26.1697 65.9423C25.7252 66.0021 25.2808 66.0618 24.8363 66.1215C26.5087 65.9352 28.1189 66.1923 29.796 65.8606C31.1267 65.5975 32.361 64.9356 33.6819 64.6029C35.5348 64.1362 37.1155 63.3341 38.5656 62.0882C39.4556 61.3236 40.18 60.3936 41.1002 59.6607C42.9124 58.2173 44.5873 56.6568 45.7233 54.5973C46.432 53.3126 46.9036 51.9114 47.4296 50.5465C47.8779 49.3835 48.3931 48.2401 48.719 47.034C49.659 43.555 49.2172 39.7247 49.1582 36.1612C49.123 34.0373 47.6335 31.8162 45.476 31.3247C43.3663 30.8442 40.8775 31.6167 39.8118 33.6297C38.7258 35.681 37.6398 37.7323 36.5538 39.7837C39.6692 40.6275 42.7847 41.4713 45.9002 42.3151C45.9216 42.1099 45.9463 41.9051 45.9743 41.7007C45.9145 42.1451 45.8548 42.5896 45.7951 43.034C45.9651 41.8801 46.3397 40.8098 46.6218 39.6839C46.9141 38.5175 47.0921 37.3277 47.3082 36.1459C47.6983 34.0127 48.2911 31.891 49.0512 29.8593C49.3596 29.0349 48.6579 30.6729 48.9429 30.1274C49.0538 29.9152 49.1503 29.6955 49.2644 29.4846C49.4662 29.1114 49.9099 28.658 50.0283 28.2681C49.5611 28.8562 49.4508 29.0053 49.6972 28.7155C49.7921 28.6032 49.8906 28.4942 49.9928 28.3884C50.1444 28.2283 50.3049 28.0764 50.4608 27.9205C50.7704 27.611 51.0742 27.2959 51.3811 26.9837C51.7432 26.6154 52.1079 26.2494 52.4849 25.8963C52.6586 25.7337 52.8348 25.574 53.0142 25.4179C53.6179 24.8927 53.0772 25.3926 52.7634 25.5798C53.1471 25.351 53.5092 25.0816 53.8957 24.8532C54.2477 24.6838 54.2027 24.6978 53.7607 24.895C53.3147 25.0726 53.2709 25.0994 53.6291 24.9753C53.8758 24.9343 54.1173 24.8626 54.3663 24.8245C53.9219 24.8842 53.4774 24.9439 53.033 25.0036C53.7642 24.9248 54.4815 24.9548 55.2107 25.0419C54.7663 24.9821 54.3218 24.9224 53.8774 24.8627C57.1191 25.3237 60.1692 26.6624 63.3698 27.3235C67.1597 28.1063 71.4996 28.4668 75.0198 26.5583C75.6902 26.1949 76.3139 25.7442 76.9224 25.2871C77.8976 24.5544 78.9838 23.8018 79.8654 22.9458C79.7988 23.0105 78.8963 23.6605 79.5729 23.1779C79.7359 23.0617 79.896 22.9414 80.0587 22.8249C80.3815 22.5936 80.708 22.3677 81.035 22.1425C81.7246 21.6676 82.4194 21.2 83.0967 20.7075C84.7125 19.5324 86.2246 18.3071 87.5552 16.8169C88.5382 15.716 89.5091 14.5902 90.6366 13.6323C90.7615 13.5262 90.9026 13.4265 91.0233 13.3148C89.9745 14.2854 90.4707 13.7416 90.8228 13.5086C91.1458 13.2948 91.4806 13.0992 91.8247 12.9214C91.9829 12.8397 92.1455 12.7672 92.3049 12.6883C92.8399 12.4233 91.1775 13.0956 92.0076 12.8297C92.4534 12.6869 92.898 12.5465 93.3492 12.4212C95.196 11.9086 97.0773 11.5206 98.9756 11.2581C98.5311 11.3179 98.0867 11.3776 97.6422 11.4373C98.8738 11.2782 100.149 11.1207 101.39 11.2375C100.946 11.1777 100.501 11.118 100.057 11.0583C100.986 11.1979 101.859 11.536 102.777 11.7223C103.668 11.9032 104.574 11.9882 105.464 12.1841C105.894 12.2788 106.322 12.3875 106.743 12.5178C106.972 12.5888 108.244 13.0815 107.369 12.7132C106.492 12.3441 107.761 12.9283 107.973 13.0464C108.436 13.3051 108.865 13.6079 109.307 13.8997C109.87 14.2711 108.411 13.0555 109.103 13.7507C109.234 13.8826 109.378 14.0021 109.51 14.1343C109.679 14.3041 110.571 15.3829 110.016 14.6657C109.458 13.944 110.289 15.0774 110.42 15.2711C110.702 15.6896 110.975 16.1145 111.256 16.5333C112.507 18.3934 113.982 19.9454 115.546 21.5304C116.233 22.2263 116.91 22.9329 117.555 23.6675C117.826 23.9758 118.084 24.2947 118.351 24.6068C119.039 25.4138 117.823 23.8729 118.232 24.4464C118.414 24.7009 118.602 24.9508 118.779 25.2087C120.084 27.1044 121.288 29.1118 123.425 30.1921C125.272 31.126 127.205 31.4338 129.264 31.4156C131.378 31.397 133.514 31.3171 135.577 30.8114C138.014 30.2141 139.931 28.9047 142.051 27.6774C142.54 27.3946 143.038 27.1295 143.547 26.8834C143.713 26.803 144.148 26.6933 144.252 26.5567C144.043 26.6444 143.835 26.7322 143.627 26.8199C143.819 26.7421 144.012 26.6674 144.207 26.5957C145.265 26.2068 146.349 25.9245 147.463 25.7562C147.019 25.8159 146.574 25.8756 146.13 25.9353C147.859 25.7146 149.732 25.6467 151.469 25.8146C151.024 25.7549 150.58 25.6952 150.135 25.6355C150.485 25.6858 150.811 25.7724 151.152 25.8579C151.96 26.0599 150.089 25.2526 150.806 25.7315C150.996 25.859 151.196 25.9808 151.39 26.1035C152.076 26.5364 150.324 25.2554 151.362 26.0746C152.477 26.9545 153.606 27.7903 154.769 28.6031C154.966 28.7409 155.163 28.8789 155.358 29.0197C155.487 29.1127 155.616 29.2069 155.743 29.3022C155.075 28.779 154.893 28.6382 155.195 28.8799C155.569 29.2156 155.961 29.5227 156.307 29.8899C157.071 30.7007 156.014 29.3716 156.167 29.6601C156.287 29.8864 156.443 30.1144 156.577 30.3339C156.735 30.6658 156.713 30.6054 156.512 30.1527C156.326 29.6909 156.296 29.6365 156.421 29.9893C156.486 30.3108 156.576 30.6185 156.623 30.9455C156.564 30.5011 156.504 30.0566 156.444 29.6122C156.647 31.6657 156.562 33.781 156.548 35.8425C156.535 37.9865 156.49 40.1301 156.452 42.2738C156.42 44.072 156.334 46.0145 156.975 47.7238C157.459 49.0136 158.078 50.104 159.062 51.0889C159.942 51.9694 160.978 52.4885 162.044 53.07C163.641 53.941 165.028 55.1076 166.667 55.9178C168.327 56.7386 170.07 57.3791 171.723 58.2135C172.142 58.4247 172.538 58.6585 172.937 58.9017C173.23 59.0797 173.535 59.4707 172.627 58.6326C172.766 58.7614 172.924 58.8762 173.067 59.0018C173.768 59.6153 174.38 60.3227 175.082 60.933C176.578 62.2339 178.107 63.0402 179.9 63.8197C181.227 64.3969 182.569 64.9603 183.831 65.6729C184.169 65.8638 184.489 66.0776 184.82 66.2805C185.002 66.3925 185.447 66.7463 184.761 66.2139C184.014 65.6343 184.663 66.1498 184.816 66.2974C184.911 66.3884 184.995 66.4915 185.091 66.5803C185.476 66.9382 184.301 65.375 184.731 66.1524C184.993 66.6261 184.419 64.8981 184.417 65.412C184.417 65.6847 184.548 66.0255 184.591 66.3004C184.531 65.856 184.471 65.4116 184.412 64.9671C184.508 65.7536 184.509 66.5286 184.417 67.3152C184.476 66.8708 184.536 66.4263 184.596 65.9819C184.471 66.8395 184.232 67.6411 183.948 68.457C183.685 69.2155 184.15 67.9976 184.154 67.977C184.114 68.1713 183.962 68.3887 183.873 68.5675C183.657 69.0015 183.422 69.4261 183.176 69.8438C182.269 71.3809 181.198 72.8122 180.167 74.2669C179.074 75.8106 178.11 77.3991 177.255 79.0876C176.295 80.9815 175.278 82.7622 174.119 84.5386C171.613 88.3799 171.244 93.4246 172.042 97.8434C172.83 102.211 175.727 106.028 178.574 109.282C179.242 110.045 179.931 110.788 180.624 111.527C181.022 111.951 181.422 112.372 181.796 112.817C181.932 112.979 182.064 113.143 182.196 113.307C182.327 113.472 182.457 113.637 182.585 113.803L182.186 113.287C183.095 114.462 183.98 115.63 185.028 116.685C185.447 117.106 185.848 117.536 186.25 117.974C186.831 118.607 185.998 117.734 186.012 117.662C185.986 117.8 186.514 118.516 186.593 118.682C187.719 121.059 191.314 121.861 193.455 120.481C195.899 118.905 196.459 116.162 195.254 113.619Z" fill="var(--fill-0, #3375FF)"/>
<path id="Vector_3" d="M144.103 85.7241C143.445 86.5191 142.575 87.1005 141.801 87.7723C140.959 88.5023 140.354 89.4344 139.583 90.2298C138.774 91.0637 137.858 91.8155 136.987 92.5846C136.06 93.404 135.118 94.2065 134.14 94.9649C134.479 94.7034 134.817 94.442 135.155 94.1806C134.002 95.0665 132.833 95.9506 131.647 96.7914C131.068 97.2017 130.467 97.5617 129.852 97.9132C128.982 98.41 128.169 99.0401 127.436 99.7194C126.59 100.503 125.937 101.463 125.158 102.309C124.198 103.352 123.068 104.248 121.95 105.116C122.289 104.854 122.627 104.593 122.966 104.332C121.702 105.307 120.4 106.232 119.113 107.177C117.536 108.334 116.026 109.573 114.479 110.768C114.817 110.507 115.156 110.246 115.494 109.984C114.02 111.113 112.473 112.14 110.963 113.218C109.135 114.524 107.38 115.912 105.739 117.446C104.326 118.766 102.956 120.131 101.548 121.457C100.158 122.764 98.7128 123.99 97.2209 125.178C96.5069 125.746 95.7998 126.325 95.1458 126.963C94.4028 127.687 93.766 128.494 92.9407 129.133C93.2791 128.871 93.6174 128.61 93.9558 128.349C93.1097 128.983 92.1786 129.478 91.2663 130.008C90.0655 130.705 89.0012 131.557 87.9052 132.408C88.2435 132.147 88.5819 131.885 88.9203 131.624C88.7519 131.751 88.5829 131.867 88.3925 131.958C88.7919 131.79 89.1913 131.621 89.5906 131.453C89.4579 131.508 89.3276 131.546 89.1858 131.569C89.6302 131.509 90.0746 131.449 90.5191 131.39C90.3517 131.407 90.1909 131.403 90.0238 131.386C90.4682 131.446 90.9127 131.505 91.3571 131.565C90.8258 131.489 90.3164 131.312 89.8213 131.109C90.2207 131.278 90.6201 131.447 91.0195 131.615C89.7837 131.083 88.6848 130.312 87.5784 129.558C86.3476 128.718 85.1031 127.898 83.8561 127.083C82.6201 126.275 81.3784 125.476 80.1313 124.685C78.9521 123.938 77.7621 123.217 76.6553 122.363C76.9937 122.625 77.3321 122.886 77.6704 123.148C74.7035 120.831 72.235 117.969 69.6371 115.264C67.9774 113.536 66.0549 112.142 64.2442 110.581C63.162 109.648 62.0923 108.671 61.2148 107.538C61.4762 107.876 61.7376 108.215 61.999 108.553C61.6972 108.156 61.4218 107.74 61.2193 107.282C61.3878 107.682 61.5563 108.081 61.7249 108.48C61.6273 108.248 61.5524 108.012 61.5149 107.762C61.5746 108.206 61.6343 108.651 61.6941 109.095C61.6747 108.932 61.6728 108.773 61.6939 108.611C61.6341 109.055 61.5744 109.499 61.5147 109.944C61.5353 109.832 61.5659 109.728 61.6063 109.621C61.4377 110.02 61.2692 110.42 61.1006 110.819C61.1922 110.61 61.3095 110.423 61.445 110.24C61.1836 110.578 60.9222 110.916 60.6608 111.255C61.1674 110.606 61.8153 110.082 62.4631 109.581C62.1247 109.842 61.7864 110.104 61.448 110.365C62.5998 109.481 63.7924 108.655 64.79 107.592C65.7354 106.585 66.5917 105.509 67.6859 104.653C67.3476 104.915 67.0092 105.176 66.6708 105.438C67.8007 104.576 69.049 103.897 70.2388 103.126C71.3439 102.41 72.3244 101.487 73.5367 100.947C73.1374 101.116 72.738 101.284 72.3386 101.453C72.6952 101.306 73.0535 101.202 73.436 101.15C72.9916 101.21 72.5471 101.269 72.1027 101.329C72.3469 101.307 72.5825 101.308 72.8262 101.332C72.3818 101.273 71.9373 101.213 71.4929 101.153C71.7577 101.193 72.0048 101.257 72.2538 101.356C71.8544 101.188 71.455 101.019 71.0556 100.851C71.3644 100.988 71.6448 101.161 71.9157 101.362C71.5773 101.1 71.239 100.839 70.9006 100.578C71.8403 101.311 72.5573 102.276 73.3941 103.117C74.5251 104.252 75.6599 105.384 76.7936 106.517C78.8367 108.559 80.7869 110.72 82.9281 112.658C83.7052 113.362 84.5042 114.03 85.3338 114.671C85.7828 115.017 86.2326 115.405 86.7391 115.671C87.185 115.905 87.7009 116.146 88.1908 116.269C88.5653 116.364 89.2298 116.454 89.6184 116.452C90.0428 116.451 90.7062 116.367 91.1169 116.248C93.5684 115.537 95.3611 113.544 97.0851 111.775C99.0681 109.739 101.064 107.695 103.137 105.75C105.374 103.651 107.697 101.646 109.936 99.5492C112.238 97.394 114.418 95.1091 116.667 92.8999C118.949 90.6599 121.251 88.4413 123.543 86.2125C125.853 83.966 128.116 81.6722 130.424 79.4238C132.664 77.2419 134.99 75.1507 137.247 72.9871C137.815 72.4422 138.379 71.8923 138.937 71.3365C136.142 70.5987 133.348 69.861 130.554 69.1232C130.792 69.8394 131.031 70.5555 131.27 71.2716C131.622 72.3287 132.179 73.1906 133.067 73.877C133.99 74.5904 134.93 74.866 136.106 74.9539C136.185 74.9583 136.264 74.9657 136.343 74.9761C135.899 74.9164 135.454 74.8566 135.01 74.7969C135.318 74.8434 135.609 74.9263 135.896 75.0459C135.497 74.8774 135.098 74.7089 134.698 74.5403C135.017 74.6847 135.311 74.8641 135.591 75.0721C135.253 74.8107 134.915 74.5492 134.576 74.2878C135.773 75.2141 136.56 76.5133 137.571 77.6175C138.695 78.8462 140.137 79.7403 141.164 81.0663C140.902 80.7279 140.641 80.3896 140.379 80.0512C140.607 80.3579 140.803 80.6775 140.96 81.026C140.791 80.6266 140.623 80.2273 140.454 79.8279C140.627 80.2579 140.713 80.7019 140.777 81.1592C140.717 80.7147 140.657 80.2703 140.598 79.8258C140.705 80.6529 140.778 81.4891 140.943 82.307C141.108 83.1294 141.461 83.9549 141.865 84.6797C142.283 85.4281 142.857 86.0456 143.198 86.8416C143.029 86.4422 142.861 86.0428 142.692 85.6434C143.019 86.4221 143.295 87.2193 143.412 88.0588C143.352 87.6144 143.292 87.1699 143.232 86.7255C143.273 87.0868 143.281 87.4417 143.241 87.8034C143.301 87.359 143.361 86.9145 143.421 86.4701C143.382 86.7344 143.319 86.9844 143.225 87.2347C143.393 86.8353 143.562 86.436 143.73 86.0366C143.621 86.2908 143.487 86.5186 143.319 86.7392C142.952 87.3149 142.754 87.9365 142.724 88.604C142.574 89.2707 142.604 89.9373 142.813 90.604C143.133 91.7674 144.033 93.0282 145.118 93.6015C146.282 94.2165 147.692 94.5248 148.983 94.1071C149.382 93.9386 149.782 93.77 150.181 93.6015C150.935 93.1556 151.534 92.5558 151.98 91.8021C153.554 89.7339 153.551 86.6823 152.847 84.2952C152.544 83.2674 152.125 82.1983 151.621 81.2642C151.245 80.5692 150.686 79.9986 150.358 79.275C150.526 79.6744 150.695 80.0737 150.863 80.4731C150.687 80.0303 150.594 79.5744 150.528 79.104C150.588 79.5484 150.647 79.9929 150.707 80.4373C150.603 79.6378 150.528 78.8321 150.38 78.0394C150.238 77.2775 149.906 76.5367 149.571 75.8501C149.122 74.9309 148.439 74.1128 147.744 73.3701C146.824 72.3865 145.702 71.6185 144.775 70.6431C143.953 69.7792 143.303 68.7689 142.471 67.9134C141.794 67.2175 141.009 66.5731 140.171 66.0866C138.862 65.3264 137.598 65.0343 136.106 64.9227C137.718 66.1501 139.33 67.3775 140.943 68.6049C140.704 67.8888 140.465 67.1727 140.227 66.4565C139.665 64.771 138.479 63.4368 136.723 62.9534C134.995 62.4775 133.111 62.9805 131.844 64.2433C128.843 67.2325 125.653 70.0228 122.645 73.0047C119.554 76.0693 116.451 79.1187 113.327 82.1495C110.238 85.1462 107.225 88.2213 104.14 91.2205C101.165 94.1124 97.9754 96.7737 94.9926 99.6577C93.3754 101.221 91.8325 102.861 90.2305 104.44C89.2669 105.39 88.3782 106.416 87.3089 107.253C87.6473 106.992 87.9856 106.73 88.324 106.469C88.0544 106.675 87.7762 106.87 87.4653 107.008C87.8646 106.84 88.264 106.671 88.6634 106.503C88.5655 106.542 88.4689 106.574 88.3652 106.593C88.8097 106.533 89.2541 106.473 89.6986 106.414C89.645 106.42 89.5964 106.422 89.5425 106.42C89.9869 106.48 90.4314 106.54 90.8758 106.599C90.8166 106.591 90.7633 106.573 90.7076 106.552C91.107 106.72 91.5064 106.889 91.9057 107.057C91.5415 106.897 91.2177 106.642 90.9043 106.401C91.2427 106.662 91.5811 106.924 91.9194 107.185C90.3504 105.963 88.921 104.563 87.5451 103.132C85.4783 100.981 83.3501 98.8899 81.2421 96.7796C80.3983 95.9348 79.6187 95.0322 78.7787 94.1857C78.1185 93.5203 77.3602 92.8936 76.5591 92.414C75.3608 91.6965 74.1261 91.4055 72.7527 91.2937C72.0464 91.2362 71.3176 91.3762 70.628 91.4961C70.3205 91.5497 70.0284 91.638 69.7384 91.7526C68.7956 92.1252 67.9179 92.5069 67.0936 93.0886C66.0068 93.8555 64.9455 94.6191 63.8084 95.3136C62.2106 96.2894 60.6233 97.355 59.3212 98.7109C58.3489 99.7234 57.4952 100.853 56.3817 101.721C56.72 101.46 57.0584 101.198 57.3968 100.937C56.4681 101.652 55.5083 102.332 54.6177 103.095C54.3345 103.338 54.0587 103.591 53.81 103.87C53.3205 104.418 52.8052 105.012 52.4749 105.674C51.671 107.286 51.4386 108.966 51.9005 110.716C52.1338 111.6 52.5518 112.494 53.0736 113.254C54.9117 115.93 57.4105 117.922 59.9087 119.943C62.5635 122.091 64.7195 124.762 67.1361 127.163C68.8659 128.882 70.7245 130.486 72.7402 131.863C74.6677 133.181 76.6893 134.371 78.6448 135.648C79.7832 136.391 80.9169 137.142 82.0449 137.901C83.0507 138.578 84.0335 139.301 85.1064 139.87C86.6849 140.708 88.5956 141.509 90.4291 141.43C91.5925 141.38 92.6769 141.112 93.6796 140.499C94.3759 140.074 94.9824 139.504 95.6275 139.004C95.2892 139.266 94.9508 139.527 94.6124 139.789C95.9035 138.809 97.4006 138.161 98.7209 137.228C99.7134 136.527 100.631 135.788 101.441 134.887C101.986 134.281 102.575 133.717 103.194 133.187C104.476 132.092 105.831 131.09 107.092 129.969C108.454 128.759 109.758 127.485 111.069 126.22C112.514 124.825 113.959 123.428 115.549 122.198C115.211 122.459 114.872 122.721 114.534 122.982C115.88 121.949 117.288 121.002 118.674 120.024C120.359 118.835 121.947 117.529 123.575 116.266C123.237 116.528 122.899 116.789 122.56 117.051C125.016 115.158 127.586 113.42 129.99 111.458C130.98 110.649 131.933 109.803 132.758 108.824C133.484 107.962 134.159 107.07 135.053 106.37C134.715 106.631 134.376 106.893 134.038 107.154C134.582 106.744 135.186 106.445 135.762 106.086C136.361 105.714 136.933 105.3 137.496 104.877C138.921 103.807 140.364 102.76 141.756 101.647C142.901 100.732 143.998 99.7589 145.087 98.7788C145.639 98.2819 146.22 97.8017 146.732 97.2635C147.212 96.7604 147.622 96.198 148.078 95.6747C149.009 94.6058 150.292 93.9098 151.196 92.8172C151.685 92.3629 152.031 91.8249 152.233 91.2031C152.547 90.6054 152.691 89.9612 152.665 89.2707C152.665 88.0405 152.119 86.5711 151.196 85.7241C150.24 84.8467 148.985 84.1953 147.649 84.2551C146.393 84.3113 144.939 84.7144 144.103 85.7241Z" fill="var(--fill-0, #3375FF)"/>
<path id="Vector_4" d="M133.838 66.2383C133.454 66.556 133.067 66.8714 132.678 67.1842C132.577 67.2651 132.41 67.3516 132.335 67.459L132.537 67.2825C132.373 67.4092 132.209 67.5358 132.045 67.6624C131.846 67.832 131.652 68.0084 131.449 68.1747C130.662 68.8194 129.868 69.4574 129.075 70.0945C127.486 71.3694 125.896 72.6425 124.34 73.9567L124.977 73.4644C123.457 74.5686 122.121 75.9785 120.727 77.239C119.495 78.3533 118.257 79.4608 117.017 80.566C114.516 82.795 112.023 85.0333 109.522 87.2628C107.072 89.4475 104.801 91.824 102.332 93.992C99.9169 96.1128 97.4402 98.1648 95.0931 100.362C93.7546 101.615 92.4855 102.94 91.1471 104.193C90.3807 104.911 89.6633 105.718 88.8562 106.387C89.1688 106.145 89.4813 105.904 89.7939 105.662C89.2246 106.092 88.641 106.514 88.0027 106.836C88.3933 106.671 88.7839 106.507 89.1744 106.342C88.6314 106.449 88.1374 106.788 87.6299 107.005C88.0239 106.839 88.418 106.672 88.8121 106.506C88.6874 106.555 88.5634 106.595 88.4309 106.617C88.8722 106.557 89.3135 106.498 89.7548 106.439C89.6826 106.446 89.615 106.447 89.5428 106.439C89.9856 106.498 90.4284 106.558 90.8712 106.617C90.8292 106.608 90.7927 106.595 90.7528 106.579C91.1514 106.747 91.5501 106.915 91.9487 107.083C91.7911 107.008 91.6504 106.906 91.5116 106.801C91.8521 107.064 92.1926 107.327 92.5331 107.59C91.0846 106.457 89.7388 105.088 88.4932 103.739C86.4393 101.513 84.383 99.3078 82.2535 97.1534C81.3244 96.2135 80.4164 95.2663 79.5286 94.2881C78.989 93.6935 78.415 93.2043 77.7789 92.7128C77.3959 92.417 77.0202 92.0962 76.5876 91.872C75.9632 91.5485 75.2787 91.2225 74.5874 91.0586C72.0323 90.4532 69.397 90.9896 67.1969 92.4022C66.6602 92.7468 66.1664 93.1503 65.6457 93.5176C65.0756 93.9197 64.4797 94.2834 63.8826 94.6436C62.2117 95.6517 60.5378 96.7155 59.143 98.0942C58.0922 99.133 57.2079 100.339 56.0376 101.255C56.4153 100.963 56.7931 100.671 57.1708 100.379C56.2117 101.118 55.2224 101.82 54.2967 102.602C54.0092 102.845 53.7289 103.098 53.4732 103.374C52.9353 103.955 52.3858 104.597 52.0126 105.298C51.0782 107.053 50.8683 108.886 51.3242 110.806C51.5455 111.737 51.9877 112.674 52.5253 113.474C54.3828 116.237 56.9465 118.277 59.5085 120.343C62.1263 122.454 64.2585 125.075 66.6361 127.442C68.417 129.216 70.3317 130.865 72.4056 132.289C74.3498 133.625 76.3993 134.819 78.3768 136.106C79.5163 136.848 80.6511 137.597 81.7801 138.354C82.7869 139.03 83.7708 139.751 84.8443 140.319C85.7265 140.786 86.6599 141.189 87.6058 141.503C87.8788 141.594 88.1552 141.668 88.4383 141.719C89.0788 141.834 89.7725 141.974 90.4293 141.946C91.6861 141.89 92.8558 141.607 93.9392 140.943C94.6721 140.494 95.3108 139.894 95.9898 139.367L94.871 140.231C96.1585 139.251 97.645 138.573 98.9428 137.608C99.9616 136.85 100.891 136.117 101.712 135.158C102.242 134.539 102.817 133.96 103.423 133.416C104.675 132.292 106.003 131.26 107.234 130.111C108.566 128.869 109.838 127.564 111.117 126.268C112.528 124.838 113.93 123.402 115.52 122.168C115.184 122.427 114.849 122.687 114.513 122.946C115.879 121.894 117.309 120.931 118.715 119.934C120.415 118.729 122.015 117.401 123.662 116.127C123.328 116.386 122.993 116.644 122.659 116.903C125.091 115.033 127.632 113.308 130.003 111.357C130.988 110.547 131.929 109.699 132.748 108.718C133.456 107.87 134.121 107 134.996 106.312C134.663 106.57 134.33 106.827 133.997 107.084C134.689 106.562 135.476 106.173 136.221 105.733C137.048 105.244 137.869 104.743 138.687 104.238C140.163 103.328 141.659 102.428 143.073 101.425C144.159 100.654 145.154 99.8966 145.848 98.7356C146.485 97.6698 146.563 96.7728 146.703 95.5681L146.528 96.8746C146.547 96.7356 146.582 96.6082 146.636 96.4786C146.471 96.8699 146.306 97.2612 146.141 97.6524C146.202 97.5234 146.276 97.4065 146.359 97.2905C146.103 97.6219 145.847 97.9534 145.591 98.2848C146.051 97.6924 146.655 97.2244 147.137 96.6471C147.597 96.0967 148.024 95.5168 148.55 95.0259C149.089 94.5228 149.686 94.0869 150.244 93.6054C150.49 93.3932 150.731 93.1739 150.948 92.9321C151.394 92.4358 151.871 91.8817 152.181 91.2833C153.351 89.0214 153.436 86.4608 152.673 84.0491C152.363 83.071 151.991 82.0613 151.484 81.1735C151.117 80.5308 150.615 79.9832 150.313 79.301C150.48 79.6963 150.647 80.0916 150.814 80.4868C150.661 80.0906 150.573 79.6871 150.513 79.2675L150.69 80.5907C150.586 79.7926 150.51 78.9918 150.379 78.1969C150.248 77.3947 149.95 76.7277 149.608 75.9711C149.187 75.0421 148.508 74.221 147.837 73.4665C146.924 72.4409 145.788 71.6498 144.847 70.6536C144.015 69.7719 143.367 68.7335 142.53 67.8544C141.854 67.1448 141.061 66.4985 140.222 65.9997C138.918 65.2246 137.6 64.9168 136.106 64.8051C134.853 64.7113 133.34 65.4447 132.477 66.3085C131.586 67.1988 130.916 68.6595 130.973 69.9382C131.033 71.2658 131.469 72.6426 132.477 73.5679C132.823 73.8354 133.169 74.103 133.515 74.3705C134.316 74.8349 135.18 75.0685 136.106 75.0713C136.225 75.0802 136.342 75.0933 136.459 75.1073L135.096 74.9241C135.364 74.9718 135.616 75.0456 135.869 75.1475C135.461 74.9754 135.053 74.8033 134.645 74.6313C135.002 74.7885 135.327 74.9895 135.638 75.2247C135.293 74.9584 134.948 74.6922 134.604 74.4259C135.772 75.3488 136.559 76.6173 137.572 77.6889C138.704 78.8865 140.137 79.7611 141.167 81.0632C140.906 80.7252 140.644 80.3871 140.383 80.049C140.614 80.3534 140.814 80.6709 140.974 81.0178C140.806 80.6197 140.638 80.2217 140.47 79.8236C140.687 80.3487 140.771 80.8961 140.848 81.4553C140.962 82.2747 141.167 82.9509 141.491 83.719C141.793 84.4344 142.126 84.9926 142.579 85.6134C142.91 86.0671 143.159 86.537 143.377 87.0533C143.211 86.6607 143.046 86.2681 142.88 85.8755C143.167 86.5719 143.405 87.283 143.516 88.03C143.458 87.5951 143.399 87.1603 143.341 86.7255C143.385 87.0863 143.399 87.4415 143.359 87.8034L143.534 86.5013C143.494 86.7654 143.431 87.0153 143.336 87.2654C143.501 86.8753 143.666 86.4852 143.83 86.095C143.72 86.3491 143.586 86.5767 143.418 86.797L144.184 85.8051C143.635 86.4667 142.935 86.9783 142.273 87.5196C141.541 88.1187 140.945 88.7922 140.345 89.5211C139.531 90.5108 138.566 91.2904 137.846 92.3705C137.117 93.4654 137.004 94.549 136.847 95.8133C136.906 95.3778 136.964 94.9423 137.023 94.5068C137.007 94.612 136.981 94.7096 136.94 94.808L137.436 93.6339C137.396 93.7155 137.35 93.7894 137.297 93.8633C137.553 93.5316 137.81 93.2 138.066 92.8684C137.884 93.0981 137.664 93.2851 137.435 93.4657C137.767 93.2094 138.098 92.9531 138.43 92.6969C136.673 94.0229 134.717 95.1277 132.836 96.2666C131.968 96.7928 131.098 97.3213 130.209 97.812C128.613 98.6926 127.291 99.8724 126.144 101.271C124.925 102.756 123.516 103.99 121.999 105.164C122.333 104.906 122.666 104.648 123 104.39C121.756 105.347 120.476 106.255 119.209 107.181C117.655 108.317 116.163 109.528 114.644 110.708C114.979 110.45 115.313 110.191 115.648 109.933C113.224 111.8 110.641 113.442 108.231 115.331C106.027 117.06 104.015 119.02 101.942 120.9C100.758 121.973 99.5525 123.024 98.2912 124.006C98.6464 123.732 99.0017 123.457 99.3569 123.183C98.0849 124.166 96.772 125.099 95.5439 126.137C94.6085 126.928 93.8372 127.892 92.876 128.649L93.9768 127.798C93.0949 128.469 92.1123 128.97 91.1423 129.498C89.8387 130.207 88.713 131.138 87.5421 132.045C87.9151 131.757 88.2882 131.468 88.6612 131.18C88.4927 131.307 88.3234 131.423 88.133 131.514C88.5733 131.328 89.0137 131.142 89.454 130.957C89.3212 131.012 89.1909 131.049 89.049 131.072C89.5391 131.006 90.0292 130.94 90.5193 130.875C90.3519 130.892 90.1911 130.887 90.024 130.87C90.5142 130.936 91.0043 131.002 91.4945 131.068C90.9632 130.99 90.4542 130.813 89.9594 130.61C90.4 130.796 90.8407 130.982 91.2813 131.168C90.0705 130.644 88.9914 129.892 87.9079 129.149C86.6814 128.309 85.4411 127.489 84.1983 126.673C82.9638 125.863 81.7234 125.062 80.4775 124.269C79.3177 123.531 78.1425 122.822 77.0492 121.986L78.1742 122.855C75.1972 120.551 72.7269 117.688 70.1373 114.976C68.4715 113.232 66.5561 111.82 64.7321 110.25C63.6442 109.313 62.5696 108.334 61.6796 107.203L62.5542 108.335C62.2305 107.915 61.9342 107.475 61.7199 106.989C61.9079 107.435 62.0959 107.881 62.2839 108.326C62.1867 108.093 62.1121 107.857 62.075 107.608C62.1416 108.103 62.2083 108.599 62.2749 109.095C62.2558 108.932 62.2542 108.773 62.2755 108.61C62.2088 109.106 62.1422 109.602 62.0755 110.098C62.0963 109.986 62.1271 109.882 62.1676 109.776C61.9795 110.221 61.7914 110.667 61.6033 111.113C61.6953 110.904 61.8129 110.717 61.9487 110.534C61.6568 110.911 61.365 111.289 61.0732 111.667C61.5566 111.05 62.1687 110.548 62.7843 110.068L61.6505 110.944C62.3206 110.427 62.9981 109.922 63.665 109.4C63.2871 109.692 62.9092 109.984 62.5313 110.276C63.6829 109.392 64.7072 108.56 65.6662 107.477C66.4274 106.618 67.1716 105.758 68.0752 105.043C67.6997 105.333 67.3242 105.623 66.9487 105.913C67.7329 105.308 68.5742 104.789 69.4156 104.268C70.6207 103.523 71.7283 102.709 72.8517 101.841L71.7318 102.706C72.381 102.206 73.0412 101.721 73.7912 101.382L72.4727 101.939C72.8284 101.79 73.1862 101.683 73.5684 101.63C73.0799 101.695 72.5913 101.761 72.1028 101.826C72.3468 101.803 72.5825 101.802 72.8263 101.825C72.3381 101.76 71.85 101.694 71.3618 101.629C71.6269 101.667 71.8743 101.73 72.1239 101.827C71.6856 101.642 71.2473 101.457 70.809 101.272C71.1583 101.425 71.4729 101.625 71.7742 101.858C71.4033 101.571 71.0324 101.285 70.6615 100.998C71.5324 101.701 72.2134 102.595 73.0035 103.381C74.0766 104.449 75.1555 105.511 76.2324 106.575C77.2919 107.621 78.3927 108.624 79.4596 109.663C80.4871 110.664 81.5011 111.68 82.5918 112.613C83.5243 113.411 84.4856 114.166 85.4612 114.911C85.1148 114.643 84.7684 114.376 84.422 114.108C85.5783 115.017 86.6769 115.823 88.1133 116.239C88.5597 116.369 89.174 116.437 89.6448 116.424C90.4712 116.402 91.0623 116.235 91.7876 115.929C92.1145 115.791 92.3984 115.687 92.6902 115.511C92.759 115.469 92.831 115.427 92.8978 115.382C93.6729 114.863 94.1621 114.326 94.7139 113.547C94.4582 113.878 94.2026 114.209 93.9469 114.54C94.7444 113.843 95.3836 112.97 96.1043 112.197C96.9074 111.336 97.7386 110.502 98.5447 109.644C100.911 107.123 103.326 104.685 105.846 102.318C108.379 99.9397 110.83 97.5056 113.231 94.9955C115.709 92.4058 118.155 89.7851 120.619 87.1814C122.003 85.7183 123.387 84.2548 124.763 82.7834C125.452 82.0465 126.138 81.3077 126.822 80.5659C127.662 79.654 128.538 78.7617 129.284 77.7713C129.12 77.9837 128.956 78.196 128.792 78.4084C130.131 76.8849 131.511 75.3969 132.888 73.9074C133.556 73.1849 134.223 72.4616 134.885 71.733C135.06 71.5394 135.242 71.351 135.418 71.1584C135.517 71.0695 135.601 70.9675 135.671 70.8523C135.889 70.5716 135.925 70.5249 135.777 70.7121C135.538 70.9857 135.874 70.608 135.922 70.5518C136.265 70.1507 136.605 69.7472 136.942 69.3415C137.323 68.8831 137.585 68.4066 137.585 67.7899C137.585 67.2517 137.345 66.6088 136.942 66.2383C135.997 65.371 134.787 65.4557 133.838 66.2383Z" fill="var(--fill-0, black)"/>
<path id="Vector_5" d="M6.29408 124.435C6.04584 125.979 5.86344 127.593 6.04308 129.156C6.10428 129.688 6.16402 130.236 6.3103 130.755C6.46216 131.293 6.7204 131.809 6.98596 132.302C7.50256 133.262 8.12842 134.179 8.83778 135.006C9.29934 135.544 9.89328 135.967 10.4546 136.389C10.8326 136.674 11.2251 136.938 11.6002 137.226L10.9638 136.735C11.9793 137.521 12.6967 138.609 13.6209 139.492C14.0518 139.904 14.53 140.258 15.0037 140.62C15.2837 140.833 15.5703 141.028 15.883 141.19C16.5409 141.531 17.1964 141.876 17.8607 142.205C18.9114 142.724 19.9949 143.161 21.0769 143.61L20.1513 143.219C20.5518 143.389 20.9347 143.594 21.3082 143.816C21.485 143.921 21.6598 144.03 21.8344 144.138C22.2857 144.419 22.7916 144.591 23.283 144.791C23.6641 144.946 24.0502 145.09 24.4468 145.2C24.8519 145.313 25.2689 145.366 25.6588 145.53C25.3713 145.409 25.0838 145.287 24.7963 145.166C24.8654 145.196 24.9336 145.228 25.0005 145.263C25.0274 145.277 25.0549 145.29 25.0816 145.304C25.0985 145.311 25.1142 145.32 25.1286 145.331C25.4123 145.45 25.696 145.57 25.9797 145.69C26.1005 145.713 26.2205 145.732 26.3397 145.763C26.5519 145.819 26.751 145.918 26.9615 145.974C26.5235 145.719 26.0855 145.463 25.6474 145.208C26.4007 145.903 27.2506 146.492 28.1225 147.028C27.9507 146.895 27.7789 146.762 27.607 146.629C28.2763 147.264 28.9198 147.925 29.565 148.584C29.8903 148.917 30.2167 149.248 30.5489 149.574C30.784 149.804 31.0382 150.025 31.2407 150.285L30.8621 149.795C30.9517 149.914 31.019 150.043 31.0773 150.18L30.8343 149.604C31.1245 150.295 31.3577 151.018 31.7189 151.677C31.9256 152.054 32.2032 152.398 32.4786 152.724C32.5 152.749 32.522 152.773 32.5456 152.796C32.7039 152.918 32.8622 153.041 33.0205 153.163C33.0384 153.175 33.0564 153.186 33.0745 153.198C33.1273 153.231 33.1809 153.263 33.2349 153.295C33.3794 153.379 33.5271 153.458 33.6757 153.534C33.8442 153.606 34.0127 153.677 34.1812 153.748C34.4624 153.836 34.7437 153.849 35.0249 153.786C35.2159 153.785 35.3939 153.737 35.5589 153.641C35.8212 153.556 36.0482 153.41 36.2399 153.204C36.4879 152.933 36.6711 152.619 36.784 152.27C36.8722 151.989 36.8848 151.707 36.8218 151.426C36.8091 151.145 36.7254 150.882 36.5707 150.639C36.4817 150.475 36.395 150.31 36.3158 150.141C36.2519 150.005 36.1865 149.893 36.0997 149.771C35.9422 149.549 35.8165 149.309 35.7103 149.059L35.9499 149.627C35.7894 149.242 35.6628 148.844 35.5276 148.451C35.4196 148.136 35.2953 147.823 35.1468 147.527C35.0019 147.238 34.7643 146.977 34.5683 146.734C34.2695 146.364 33.9245 146.029 33.6061 145.676C33.2248 145.253 32.8494 144.826 32.4711 144.4C32.0581 143.936 31.6437 143.472 31.2091 143.027C31.3418 143.199 31.4746 143.371 31.6073 143.543C31.3168 143.09 30.9546 142.663 30.6275 142.241C30.7694 142.424 30.9113 142.608 31.0532 142.792C30.7678 142.417 30.564 142.002 30.3246 141.599C30.4602 142.1 30.5957 142.601 30.7312 143.102C30.7048 142.641 30.6173 142.1 30.4821 141.639C30.25 140.848 29.8841 140.07 29.2303 139.541C28.9046 139.278 28.5485 138.978 28.1781 138.752C28.0282 138.661 27.8702 138.589 27.7129 138.511C27.4142 138.364 27.1276 138.194 26.85 138.011C26.7138 137.92 26.5796 137.827 26.4468 137.732C26.3046 137.63 26.1667 137.509 26.0154 137.422C25.7371 137.26 25.4394 137.121 25.1501 136.981C24.5511 136.69 23.9366 136.425 23.3106 136.198C22.9719 136.076 22.6237 135.98 22.2826 135.864C21.4718 135.588 20.678 135.266 19.8892 134.933C20.1872 135.059 20.4851 135.185 20.7831 135.31C19.9263 134.948 19.0705 134.584 18.2128 134.225C18.5038 134.348 18.7948 134.47 19.0858 134.593C18.1914 134.212 17.4108 133.656 16.6454 133.065C16.8727 133.24 17.1 133.416 17.3273 133.592C16.7784 133.167 16.2366 132.731 15.6731 132.325C15.3311 132.079 14.9583 131.881 14.5786 131.7C13.8197 131.339 13.0261 131.036 12.352 130.523L12.9341 130.972C12.1478 130.361 11.4536 129.596 10.8455 128.81L11.2488 129.332C11.0439 129.065 10.8514 128.714 10.6156 128.5C10.7478 128.671 10.88 128.842 11.0122 129.013C10.7379 128.641 10.527 128.227 10.3464 127.802L10.5802 128.356C10.0564 127.111 9.74206 125.768 9.54354 124.435L9.37368 124.032C9.2678 123.836 9.12314 123.678 8.93972 123.559C8.65554 123.34 8.28788 123.181 7.9188 123.198C7.6197 123.211 7.3331 123.288 7.06838 123.428C6.87202 123.534 6.71444 123.678 6.59564 123.862C6.44672 124.024 6.3462 124.215 6.29408 124.435Z" fill="var(--fill-0, black)"/>
<path id="Vector_6" d="M6.1355 73.9595C5.71886 74.1096 5.4599 74.2648 5.12216 74.5523C5.0654 74.6006 5.01308 74.6541 4.96526 74.7112C4.8253 74.8785 4.68594 75.0524 4.56732 75.2365C4.39522 75.5035 4.2832 75.811 4.16326 76.1018C4.09242 76.2736 4.0316 76.4486 3.97702 76.6262L4.18876 76.1244C4.10852 76.2998 4.03328 76.4774 3.96302 76.6572L3.88744 77.2197C3.88492 77.2546 3.8838 77.2899 3.88152 77.3249C3.87698 77.3946 3.87318 77.4644 3.86978 77.5341C3.8632 77.6695 3.85838 77.805 3.85318 77.9404C3.84398 78.1798 3.83514 78.4198 3.80338 78.6575C3.83036 78.4567 3.85734 78.2558 3.88432 78.055C3.7986 78.6525 3.65912 79.2376 3.62052 79.8431C3.59634 80.2225 3.63856 80.6208 3.74268 80.9835C3.83902 81.3191 3.98246 81.677 4.18802 81.9682C4.39432 82.2605 4.62254 82.5718 4.8889 82.8209C5.15624 83.0709 5.46736 83.2941 5.75508 83.5117C6.04776 83.7331 6.35528 83.9341 6.64658 84.1573C6.47368 84.0237 6.30076 83.8901 6.12786 83.7566C6.37586 83.9489 6.59072 84.1723 6.80818 84.3979C7.05968 84.6588 7.32028 84.9203 7.54466 85.2053L7.12736 84.6652C7.53276 85.2318 7.89142 85.8293 8.1658 86.4708C8.06634 86.2351 7.96688 85.9994 7.86742 85.7637C8.0326 86.1562 8.14574 86.5662 8.2976 86.9635C8.52028 87.5462 8.7559 88.1547 9.08766 88.69C9.3288 89.0791 9.62706 89.4344 9.90806 89.793C10.0342 89.9539 10.1682 90.1083 10.309 90.2565C10.6363 90.6012 11.0116 90.8976 11.3449 91.2381C11.9873 91.8945 12.551 92.6205 13.113 93.3452C13.7021 94.1049 14.3037 94.8485 14.9635 95.5484C15.7276 96.359 16.5311 97.1379 17.216 98.019C17.021 97.7665 16.826 97.5141 16.6309 97.2616C16.8886 97.5971 17.1207 97.952 17.286 98.3426L16.9055 97.441C17.018 97.7142 17.0922 97.9979 17.1333 98.2903C17.0881 97.9539 17.0429 97.6176 16.9977 97.2812C17.0741 97.8567 17.0409 98.4419 17.0283 99.0203C17.0215 99.331 17.0536 99.64 17.07 99.9499C17.0787 100.114 17.084 100.279 17.0766 100.443C17.0697 100.594 17.0833 100.745 17.0652 100.895L17.2019 99.8779C17.1852 99.9898 17.1576 100.097 17.1149 100.202C17.2417 99.9016 17.3684 99.6012 17.4952 99.3008C17.4554 99.3912 17.4013 99.4714 17.3556 99.5582C17.5497 99.307 17.7437 99.0559 17.9377 98.8048C17.6341 99.1861 17.404 99.4582 17.1906 99.8451C16.9896 100.21 16.7821 100.597 16.7034 101.003L16.5779 101.937L16.7034 102.871C16.8214 103.15 16.9395 103.43 17.0575 103.71C17.2782 104.119 17.5798 104.448 17.9622 104.695C18.1814 104.913 18.4397 105.064 18.7372 105.147C19.0112 105.306 19.3067 105.386 19.6237 105.387C19.935 105.47 20.2462 105.47 20.5575 105.387C21.025 105.366 21.4603 105.227 21.8635 104.97C21.9644 104.914 22.0628 104.853 22.1667 104.801C22.5659 104.601 22.8014 104.413 23.2021 104.069L22.4487 104.651C22.7108 104.49 23.1612 104.17 23.4205 103.873C23.6954 103.557 24.0256 103.189 24.2132 102.789C24.5923 101.98 24.7777 101.486 24.8243 100.577C24.8311 100.444 24.8274 100.312 24.8179 100.18C24.7976 99.8942 24.7544 99.6112 24.7272 99.3265C24.7024 99.068 24.7033 98.8075 24.6957 98.5481C24.6882 98.2962 24.6793 98.0441 24.6577 97.7929C24.6347 97.5258 24.5934 97.2602 24.5577 96.9948C24.5214 96.7246 24.4935 96.4484 24.4364 96.1804C24.325 95.6585 24.0781 95.1638 23.8699 94.6811C23.7789 94.47 23.6704 94.2689 23.5442 94.0767C22.6561 92.7244 21.4776 91.6488 20.3145 90.5452C19.8301 90.0857 19.3608 89.6131 18.9157 89.1152C18.4959 88.6456 18.0916 88.1624 17.6769 87.6883C17.214 87.1591 16.7359 86.6422 16.2136 86.1706C16.084 86.0536 15.9519 85.9395 15.8173 85.8285C15.7423 85.7666 15.6664 85.706 15.5899 85.646C15.3019 85.4201 15.0176 85.1633 14.7064 84.969C14.431 84.797 14.1518 84.6423 13.8929 84.4445L14.5702 84.9678C14.2089 84.6875 13.8937 84.3615 13.6141 84.0001C13.7786 84.213 13.9431 84.4259 14.1076 84.6388C13.9652 84.4527 13.8309 84.2609 13.7008 84.0661C13.4233 83.6506 13.1146 83.2555 12.8008 82.8672C12.4874 82.4793 12.1341 82.1252 11.7588 81.7973C11.5707 81.633 11.3713 81.4819 11.1881 81.3122C11.0026 81.1402 10.8128 80.9729 10.6206 80.8084C10.1322 80.3902 9.63876 79.967 9.08314 79.6403C8.67498 79.4003 8.2474 79.189 7.87082 78.8992L8.37308 79.2872C8.23178 79.176 8.10062 79.0547 7.98918 78.9131C8.1171 79.0787 8.24502 79.2443 8.37296 79.4098C8.30882 79.3247 8.25392 79.2355 8.20956 79.1385L8.45536 79.721C8.38114 79.5446 8.33824 79.3564 8.31196 79.1674C8.34038 79.3789 8.3688 79.5904 8.39722 79.8019C8.33936 79.3426 8.36954 78.8778 8.31046 78.4187C8.23596 77.84 8.12834 77.2689 8.0471 76.6917C8.07232 76.8794 8.09754 77.0671 8.12276 77.2548C8.07612 76.763 8.0469 76.5629 7.81618 76.1244L8.02792 76.6262C7.93012 76.353 7.84342 76.0742 7.80414 75.7858C7.82568 75.9462 7.84722 76.1065 7.86878 76.2669C7.84946 76.1107 7.8427 75.9544 7.86264 75.7979L7.80358 76.2375C7.81854 76.1368 7.84266 76.0399 7.88136 75.9457C7.82918 76.0693 7.777 76.193 7.72482 76.3166C7.75114 76.2571 7.78128 76.2011 7.81714 76.1468L7.96724 75.7911C7.98496 75.6592 8.0027 75.5272 8.02042 75.3953C8.02042 75.0638 7.9009 74.7522 7.70072 74.4931C7.53826 74.2828 7.34988 74.1378 7.1051 74.0345C6.81676 73.9128 6.44008 73.8497 6.1355 73.9595Z" fill="var(--fill-0, black)"/>
<path id="Vector_7" d="M189.688 68.6307C189.795 68.9878 189.882 69.3496 189.935 69.7189C189.905 69.4987 189.876 69.2785 189.846 69.0583C189.895 69.4262 189.905 69.7955 189.859 70.1642C189.89 69.9356 189.921 69.707 189.951 69.4784C189.893 69.7747 189.871 70.0782 189.833 70.3778C189.864 70.1483 189.895 69.9188 189.926 69.6894C189.883 69.9971 189.8 70.2941 189.682 70.5814C189.77 70.3734 189.858 70.1655 189.945 69.9575C189.747 70.4277 189.465 70.8536 189.155 71.257C189.293 71.0783 189.431 70.8997 189.569 70.721C189.357 70.9938 189.131 71.2542 188.903 71.5139C188.523 71.9474 188.171 72.4078 187.835 72.8757C187.401 73.4814 187.024 74.127 186.683 74.7893C186.005 76.1059 185.485 77.4952 184.759 78.7883C184.368 79.4846 183.866 80.1344 183.38 80.766C183.538 80.5608 183.697 80.3555 183.856 80.1503C183.347 80.8082 182.811 81.4441 182.257 82.0643C181.972 82.3834 181.682 82.6985 181.39 83.0109C181.095 83.3256 180.774 83.6255 180.499 83.9564C179.834 84.755 179.189 85.5689 178.691 86.4826C178.482 86.8666 178.257 87.2421 178.044 87.6241C177.69 88.2599 177.406 88.9267 177.138 89.604C176.948 90.086 176.838 90.5902 176.752 91.0998C176.681 91.5192 176.599 91.9202 176.617 92.3385C176.622 92.4561 176.627 92.5737 176.629 92.6914C176.636 92.9496 176.639 93.2102 176.607 93.4669C176.646 93.1738 176.686 92.8807 176.725 92.5876C176.619 93.3091 176.393 94.0087 176.406 94.7486C176.416 95.3479 176.524 95.9441 176.677 96.5224C176.785 96.9311 176.913 97.3351 177.06 97.7315C177.248 98.2395 177.445 98.757 177.713 99.229C177.753 99.2983 177.795 99.3661 177.84 99.4316C177.978 99.6296 178.121 99.8415 178.304 100.002C178.5 100.175 178.713 100.34 178.949 100.455C179.066 100.512 179.189 100.557 179.295 100.635C179.179 100.546 179.064 100.456 178.949 100.367C179.018 100.421 179.082 100.478 179.139 100.546L178.878 100.209C178.92 100.267 178.951 100.328 178.981 100.394C178.926 100.263 178.871 100.133 178.816 100.003C178.904 100.235 178.915 100.479 178.974 100.717C179.037 100.975 179.152 101.228 179.284 101.459C179.482 101.804 179.724 102.187 179.999 102.472L179.797 102.211C179.973 102.44 180.135 102.643 180.403 102.758C180.545 102.819 180.689 102.884 180.836 102.937C181.007 102.999 181.171 103.024 181.355 103.043C181.606 103.069 181.857 102.906 182.002 102.719C182.173 102.497 182.192 102.271 182.149 102.001C182.202 102.334 182.166 102.103 182.172 102.005C182.177 101.917 182.187 101.831 182.198 101.744L182.156 102.059C182.169 101.961 182.184 101.864 182.197 101.767C182.224 101.56 182.204 101.353 182.145 101.152C182.108 101.029 182.067 100.907 182.032 100.784C181.978 100.59 181.927 100.393 181.898 100.193L181.95 100.584C181.933 100.452 181.943 100.323 181.96 100.192L181.906 100.599C181.943 100.349 181.985 100.102 182.013 99.8503C182.042 99.5822 182.007 99.3413 181.959 99.0694C181.874 98.5884 181.6 98.2455 181.311 97.8738C181.401 97.9901 181.491 98.1064 181.581 98.2227C181.505 98.0764 181.412 97.941 181.343 97.7905C181.406 97.94 181.469 98.0895 181.533 98.2391C181.506 98.1746 181.487 98.1111 181.474 98.0424L181.544 98.5588C181.523 98.3616 181.546 98.1602 181.572 97.9646C181.547 98.1529 181.521 98.3413 181.496 98.5296C181.621 97.6505 181.903 96.7746 182.246 95.9577C182.147 96.1932 182.047 96.4286 181.948 96.664C182.083 96.3464 182.222 96.0331 182.335 95.7076C182.363 95.6255 182.393 95.5443 182.427 95.464C182.324 95.7081 182.221 95.9522 182.118 96.1963C182.29 95.7916 182.591 95.4701 182.798 95.0864C183.042 94.6349 183.221 94.1466 183.404 93.6675C183.447 93.5561 183.487 93.4441 183.527 93.3319C183.677 92.9128 183.691 92.51 183.753 92.0473C183.71 92.3631 183.668 92.6789 183.625 92.9947C183.715 92.3297 183.859 91.6959 184.117 91.0743C183.998 91.3552 183.88 91.6362 183.761 91.9171C184.058 91.2146 184.44 90.5482 184.786 89.8693C185.085 89.2822 185.449 88.7432 185.851 88.2219C185.671 88.4547 185.491 88.6876 185.311 88.9204C185.713 88.4004 186.1 87.8822 186.468 87.3394C186.676 87.0314 186.883 86.722 187.086 86.4103C187.488 85.7938 187.877 85.1687 188.245 84.5308C188.605 83.9055 188.944 83.2679 189.255 82.6167C189.578 81.9421 189.902 81.2649 190.2 80.5788C190.632 79.5816 191.004 78.5624 191.425 77.5609C191.332 77.7813 191.239 78.0017 191.146 78.2221C191.649 77.0325 192.235 75.8719 193.027 74.8464C192.887 75.0269 192.748 75.2074 192.609 75.3879C193.022 74.8595 193.452 74.3421 193.827 73.7849C194.105 73.3712 194.315 72.9411 194.509 72.4824C194.619 72.2203 194.733 71.9625 194.809 71.6879C194.914 71.3035 194.954 70.8966 194.999 70.5038C195.02 70.323 195.023 70.1491 195.006 69.9678C194.969 69.5696 194.921 69.1656 194.831 68.7747C194.673 68.085 194.37 67.4187 194.057 66.7889C193.907 66.5104 193.701 66.2868 193.441 66.1183C193.21 65.907 192.939 65.7644 192.628 65.6904C192.417 65.662 192.205 65.6335 191.993 65.6051C191.664 65.5926 191.357 65.6613 191.072 65.8109C190.87 65.8677 190.694 65.9702 190.545 66.1183C190.284 66.2868 190.079 66.5104 189.929 66.7889C189.632 67.3506 189.501 68.0068 189.688 68.6307Z" fill="var(--fill-0, black)"/>
<path id="Vector_8" d="M192.367 118.967L192.369 119.01C192.439 118.752 192.509 118.493 192.578 118.235C192.48 118.437 192.363 118.628 192.238 118.814L193.452 117.881L193.441 117.885L192.945 118.094C192.703 118.225 192.509 118.403 192.362 118.629C192.234 118.759 192.145 118.912 192.095 119.087C191.965 119.335 191.906 119.602 191.917 119.888L191.915 119.936L191.989 119.383C191.855 120.241 191.61 121.074 191.399 121.914C191.485 121.71 191.572 121.505 191.658 121.3C191.608 121.415 191.559 121.53 191.512 121.646C191.35 121.954 191.276 122.286 191.289 122.642C191.285 122.686 191.282 122.73 191.277 122.774C191.27 122.852 191.263 122.929 191.256 123.007C191.241 123.192 191.228 123.377 191.204 123.561C191.235 123.328 191.267 123.096 191.298 122.863C191.221 123.416 191.07 123.952 190.854 124.467C190.944 124.251 191.035 124.036 191.126 123.821C190.829 124.514 190.423 125.149 189.964 125.745L190.404 125.177C189.72 126.06 188.934 126.855 188.176 127.672C187.745 128.137 187.319 128.596 186.844 129.017C186.373 129.436 185.882 129.835 185.464 130.31C184.871 130.986 184.363 131.733 183.815 132.446C183.986 132.226 184.156 132.005 184.327 131.784C183.994 132.215 183.638 132.627 183.209 132.965C183.436 132.79 183.663 132.614 183.891 132.438C183.398 132.817 182.832 133.11 182.281 133.393C181.692 133.697 181.089 133.973 180.479 134.231C180.768 134.108 181.058 133.986 181.347 133.864C180.181 134.354 178.981 134.757 177.797 135.201C176.828 135.563 175.864 135.937 174.911 136.339C173.562 136.907 172.218 137.482 170.922 138.165C170.423 138.427 169.971 138.765 169.522 139.105C168.817 139.637 168.111 140.174 167.449 140.76C167.222 140.962 166.999 141.169 166.783 141.383C166.346 141.815 165.983 142.319 165.672 142.848C165.523 143.102 165.382 143.361 165.251 143.625C165.187 143.754 165.125 143.884 165.066 144.016C165.035 144.085 165.005 144.154 164.975 144.223C164.608 145.077 164.538 145.107 164.471 146.049C164.623 145.489 164.774 144.928 164.926 144.368C164.742 144.613 164.597 144.901 164.457 145.173C164.195 145.682 163.976 146.216 163.767 146.748C163.489 147.458 163.348 148.182 163.247 148.935C163.25 148.913 163.191 149.243 163.19 149.379C163.188 149.611 163.251 149.997 163.294 150.227C163.302 150.266 163.31 150.304 163.318 150.343C163.335 150.421 163.353 150.499 163.372 150.576C163.392 150.656 163.414 150.734 163.437 150.813C163.448 150.853 163.46 150.893 163.473 150.933C163.513 151.06 163.555 151.137 163.621 151.294C163.686 151.525 163.803 151.726 163.973 151.897C164.032 152.012 164.109 152.11 164.206 152.19C163.942 151.553 163.678 150.915 163.414 150.278L163.411 150.317C163.443 150.556 163.475 150.796 163.507 151.035C163.591 151.387 163.752 151.694 163.991 151.955C164.111 152.158 164.273 152.32 164.476 152.44C164.737 152.679 165.044 152.84 165.396 152.924C165.836 153.092 166.392 153.017 166.833 152.924C167.048 152.833 167.264 152.742 167.479 152.651C167.794 152.481 168.047 152.249 168.238 151.955C168.405 151.786 168.521 151.587 168.585 151.358C168.754 151.036 168.832 150.689 168.818 150.317L168.821 150.278C168.375 151.056 167.928 151.835 167.482 152.613C167.942 152.34 168.294 151.962 168.547 151.497C168.581 151.436 168.615 151.375 168.651 151.315C168.869 150.942 169.027 150.69 169.183 150.227C169.286 149.921 169.38 149.615 169.505 149.316C169.4 149.565 169.295 149.814 169.19 150.063C169.475 149.395 169.853 148.773 170.296 148.199C170.125 148.42 169.953 148.642 169.782 148.864C170.078 148.483 170.388 148.117 170.678 147.73C170.014 148.24 169.351 148.75 168.687 149.261C168.833 149.208 168.976 149.149 169.116 149.081C169.531 148.946 169.891 148.715 170.194 148.389C170.224 148.365 170.254 148.342 170.283 148.319C170.055 148.495 169.827 148.671 169.599 148.848C169.872 148.639 170.154 148.443 170.445 148.261C170.592 148.168 170.742 148.078 170.893 147.992C171.353 147.729 171.696 147.522 172.132 147.122C171.868 147.326 171.603 147.531 171.339 147.735C171.729 147.456 172.096 147.146 172.476 146.853L171.677 147.47C172.195 147.071 172.736 146.704 173.292 146.361C173.85 146.018 174.444 145.731 174.994 145.376C176.085 144.67 177.221 144.036 178.376 143.44C179.434 142.895 180.509 142.384 181.585 141.878C183.143 141.145 184.651 140.272 186.042 139.258C186.478 138.94 186.905 138.607 187.328 138.273C187.51 138.129 187.695 137.988 187.866 137.831C188.036 137.676 188.191 137.505 188.335 137.326C188.634 136.952 188.937 136.573 189.202 136.172C189.706 135.411 190.088 134.571 190.647 133.846C190.483 134.058 190.32 134.27 190.156 134.481C190.543 133.989 190.978 133.54 191.397 133.076C191.947 132.467 192.421 131.796 192.922 131.147C192.768 131.347 192.614 131.546 192.46 131.746C193.273 130.694 194.133 129.667 194.841 128.54C195.244 127.898 195.545 127.228 195.837 126.529C196.041 126.04 196.199 125.534 196.286 125.01C196.374 124.483 196.453 123.944 196.462 123.408C196.471 122.931 196.492 122.359 196.357 121.914C196.387 122.142 196.418 122.37 196.448 122.598C196.316 121.525 196.231 120.441 196.001 119.383L196.075 119.936L196.07 119.888L195.996 119.336C195.932 119.065 195.808 118.83 195.624 118.629C195.532 118.473 195.408 118.349 195.252 118.257C195.051 118.073 194.816 117.949 194.545 117.885L194.531 117.881C194.83 118.055 195.128 118.229 195.427 118.403C195.291 118.234 195.147 118.073 194.989 117.925L195.383 118.602L195.369 118.561C195.243 118.199 195.019 117.834 194.667 117.647C194.358 117.484 194.04 117.419 193.692 117.466C192.973 117.563 192.334 118.204 192.367 118.967Z" fill="var(--fill-0, black)"/>
<path id="Vector_9" d="M161.897 173.539C161.42 174.258 160.956 175.226 160.498 175.81C160.502 175.804 160.23 176.104 160.134 176.182C160.385 175.975 159.992 176.251 159.925 176.289C159.762 176.381 159.594 176.462 159.425 176.54C159.353 176.573 158.64 176.885 159.066 176.702C158.205 177.072 157.384 177.501 156.547 177.92C156.174 178.107 155.798 178.29 155.418 178.462C155.291 178.52 155.163 178.577 155.034 178.632C155.313 178.515 155.323 178.509 155.065 178.614C154.88 178.679 154.698 178.752 154.511 178.814C154.333 178.873 154.154 178.928 153.972 178.976C153.857 179.007 153.741 179.034 153.624 179.058C153.972 179.027 154.035 179.017 153.812 179.028C153.674 179.014 152.804 178.932 153.473 179.042C153.062 178.975 152.645 178.924 152.231 178.879C151.524 178.801 150.909 178.878 150.197 178.98L150.014 179.006C149.673 179.056 149.769 179.044 150.301 178.969C150.11 178.954 149.894 178.994 149.7 178.989C149.583 178.987 148.674 178.89 149.303 178.975C149.937 179.06 149.009 178.912 148.898 178.89C148.462 178.802 148.029 178.699 147.595 178.601C146.261 178.3 144.918 178.19 143.565 178.021C143.931 178.07 144.297 178.119 144.664 178.169C143.365 177.992 142.088 177.706 140.81 177.414C139.881 177.202 138.964 177.016 138.01 176.932C137.355 176.875 136.696 176.905 136.041 176.838C136.434 176.89 136.827 176.943 137.219 176.996C135.714 176.771 134.278 176.311 132.736 176.271C130.864 176.222 129.268 176.835 127.598 177.583C125.485 178.531 123.345 179.414 121.414 180.704C119.476 182 117.314 182.878 115.271 183.984C114.262 184.53 113.31 185.171 112.323 185.754C111.292 186.362 110.205 186.874 109.105 187.347C109.474 187.191 109.843 187.035 110.212 186.88C109.58 187.141 108.927 187.321 108.285 187.551C107.401 187.868 106.547 188.264 105.683 188.63C106.054 188.474 106.425 188.317 106.796 188.161C106.114 188.444 105.433 188.679 104.7 188.789C105.114 188.733 105.528 188.678 105.942 188.622C104.531 188.78 103.127 188.954 101.721 189.155L102.968 188.988C102.103 189.103 101.264 189.151 100.397 189.037C100.815 189.093 101.234 189.149 101.652 189.206C100.242 188.987 98.8674 188.699 97.4442 188.532C97.8686 188.589 98.293 188.646 98.7174 188.703C97.7322 188.559 96.7963 188.256 95.8633 187.916C94.9597 187.587 94.0291 187.347 93.1279 187.019L94.305 187.515C93.973 187.375 93.6863 187.204 93.4009 186.986C93.735 187.244 94.069 187.502 94.4031 187.76C93.6255 187.122 92.8595 186.476 92.0009 185.947C91.3888 185.57 90.8063 185.15 90.237 184.711C90.5772 184.974 90.9175 185.237 91.2578 185.5C89.6566 184.245 88.044 182.931 86.5879 181.51C85.0039 179.964 83.4377 178.312 81.43 177.31C80.3984 176.795 79.4627 176.174 78.3948 175.723C76.9646 175.12 75.4323 174.946 73.8845 175.005C72.9124 175.043 71.9528 175.118 70.9794 175.068C69.5401 174.994 68.1155 174.994 66.7007 175.354C65.6147 175.63 64.5951 176.142 63.4997 176.416C62.3079 176.714 61.0969 176.946 59.8799 177.113L61.2717 176.926C59.7967 177.114 58.3171 177.18 56.8376 177.003C57.2951 177.064 57.7525 177.126 58.2099 177.187C56.9488 177.012 55.6879 176.802 54.417 176.712C53.1707 176.623 52.0084 176.784 50.7668 176.959C51.2084 176.9 51.65 176.84 52.0916 176.781C51.7731 176.817 51.4676 176.825 51.1487 176.786C51.5758 176.844 52.0029 176.901 52.43 176.958C51.9811 176.88 51.554 176.724 51.1057 176.642C50.3085 176.495 49.5195 176.467 48.7215 176.363C49.1096 176.415 49.4976 176.467 49.8857 176.519C49.7659 176.501 49.6504 176.468 49.539 176.42C49.8827 176.565 50.2264 176.71 50.5702 176.855C49.8453 176.511 49.2925 176.085 48.5037 175.811C47.4124 175.432 46.3852 175.498 45.2674 175.681L46.2987 175.542C45.8154 175.533 45.3456 175.588 44.8632 175.525C45.1961 175.57 45.529 175.615 45.8619 175.66C45.162 175.507 46.5254 176.097 46.0235 175.778C45.9052 175.703 45.7817 175.637 45.6644 175.559C45.4101 175.392 45.1726 175.2 44.9182 175.033C44.003 174.431 42.871 174.079 41.7725 174.116C42.8693 174.951 43.9662 175.786 45.063 176.621C44.7208 175.504 44.0623 174.515 43.1847 173.746C42.4762 173.124 41.6549 172.44 40.8306 171.962C41.4921 172.346 41.1467 172.208 40.9443 172.034C40.7917 171.903 40.6417 171.77 40.4852 171.643C39.9456 171.207 39.405 170.871 38.7815 170.579C37.9284 170.179 37.0454 169.856 36.2149 169.407C35.4308 168.983 34.4347 169.078 33.7932 169.719C33.2197 170.293 32.9512 171.447 33.4807 172.141C34.0703 172.913 34.7099 173.618 35.3591 174.339C35.5002 174.495 35.6357 174.657 35.7745 174.815C36.1104 175.199 35.6424 174.578 35.8001 174.853C36.0789 175.339 36.4805 175.831 36.8244 176.26C37.2413 176.779 37.7123 177.249 38.1523 177.748C38.271 177.883 38.382 178.041 38.5081 178.168L38.2191 177.797C38.2859 177.889 38.3496 177.983 38.4102 178.08C38.4888 178.206 38.6988 178.671 38.4686 178.112C38.3511 177.809 38.3317 177.772 38.4106 178.001C38.4916 178.347 38.4748 178.189 38.3602 177.528C38.4687 178.932 39.3344 180.53 40.8654 180.819C40.9802 180.834 41.0924 180.861 41.2019 180.899C40.6356 180.639 40.5057 180.595 40.8123 180.767C39.9389 180.209 40.3797 180.414 40.6016 180.627C40.9046 180.918 41.1775 181.235 41.4932 181.513C42.9362 182.783 44.4519 183.105 46.2987 183.3C45.9549 183.254 45.6112 183.208 45.2674 183.162C45.3907 183.211 45.5155 183.256 45.6419 183.297C45.3261 183.163 45.0103 183.03 44.6945 182.897C44.8866 182.979 45.0408 183.065 45.2121 183.185C44.9376 182.972 44.6631 182.76 44.3886 182.548C44.569 182.709 44.7166 182.884 44.8639 183.075C44.6454 182.792 44.427 182.509 44.2085 182.227C45.0057 183.274 45.7386 184.187 46.9754 184.746C47.6051 185.03 48.1125 185.449 48.7161 185.768C49.54 186.202 50.3943 186.517 51.3071 186.67C52.5317 186.875 53.7612 186.865 54.9894 187.023C54.5347 186.962 54.08 186.901 53.6254 186.84C55.159 187.054 56.6742 187.385 58.2244 187.478C59.3572 187.545 60.4948 187.486 61.6214 187.359C63.1185 187.19 64.62 186.98 66.0968 186.676C67.5765 186.371 68.8976 185.846 70.2902 185.248C69.8664 185.427 69.4426 185.606 69.0189 185.785C69.3592 185.648 69.6969 185.559 70.0578 185.499C69.587 185.562 69.1162 185.625 68.6454 185.688C69.833 185.538 71.0233 185.711 72.2143 185.654C73.3488 185.598 74.4849 185.435 75.6196 185.572L74.223 185.384C74.5525 185.438 74.8551 185.528 75.1637 185.653C74.746 185.477 74.3284 185.301 73.9107 185.125C74.5932 185.436 75.209 185.867 75.8797 186.201C76.5594 186.539 77.1942 186.886 77.8019 187.346C77.4506 187.074 77.0993 186.803 76.7481 186.532C77.6449 187.236 78.4366 188.053 79.2646 188.834C80.4228 189.926 81.7374 190.833 82.9954 191.805C82.6508 191.538 82.3062 191.272 81.9617 191.006C83.073 191.866 84.1721 192.751 85.329 193.55C86.1712 194.133 87.1207 194.565 87.9343 195.18C87.5993 194.921 87.2643 194.663 86.9292 194.404C88.1596 195.362 89.1023 196.077 90.6107 196.554C91.3444 196.786 92.1058 196.919 92.8421 197.15C93.5655 197.378 94.289 197.613 95.0322 197.768C96.2115 198.016 97.41 198.065 98.5996 198.221C98.1776 198.165 97.7556 198.108 97.3336 198.051C98.7731 198.259 100.229 198.577 101.689 198.506C103.157 198.435 104.6 198.109 106.053 197.912C105.638 197.968 105.223 198.024 104.809 198.08C105.968 197.941 107.152 197.905 108.268 197.536C109.305 197.193 110.292 196.706 111.294 196.275C110.924 196.431 110.553 196.587 110.183 196.743C111.447 196.215 112.742 195.82 113.998 195.254C114.911 194.843 115.82 194.403 116.683 193.894C118.443 192.855 120.134 191.769 121.96 190.842C122.893 190.368 123.826 189.892 124.728 189.361C125.599 188.849 126.398 188.231 127.267 187.719C128.12 187.218 129.022 186.809 129.923 186.403C130.871 185.975 131.794 185.493 132.751 185.087C132.393 185.239 132.035 185.39 131.677 185.541C132.177 185.34 132.666 185.187 133.201 185.11C132.803 185.163 132.406 185.217 132.008 185.27C132.579 185.217 133.13 185.243 133.698 185.315C133.301 185.262 132.904 185.208 132.508 185.155C133.687 185.332 134.845 185.635 136.041 185.698C136.893 185.743 137.736 185.584 138.588 185.678L137.437 185.523C139.005 185.744 140.569 185.998 142.143 186.168C142.776 186.237 143.411 186.286 144.047 186.304C144.965 186.329 145.847 186.187 146.753 186.057C146.402 186.104 146.051 186.151 145.7 186.199C146.91 186.041 148.125 185.943 149.331 185.75C150.426 185.574 151.417 185.18 152.406 184.681C152.513 184.625 152.62 184.572 152.729 184.521C152.293 184.696 152.235 184.73 152.554 184.622L152.231 184.644C152.394 184.63 152.556 184.62 152.719 184.612C153.365 184.571 154.03 184.539 154.655 184.364C155.645 184.087 156.596 183.533 157.445 182.961C158.289 182.39 159.092 181.758 159.893 181.128C160.063 180.995 160.233 180.861 160.402 180.727C160.761 180.443 160.103 180.919 160.53 180.636C160.865 180.413 161.209 180.203 161.542 179.978C162.405 179.397 163.131 178.725 163.622 177.796C164.059 176.971 164.391 175.951 164.739 175.2C165.113 174.395 164.966 173.427 164.149 172.949C163.343 172.478 162.39 172.796 161.897 173.539Z" fill="var(--fill-0, black)"/>
<path id="Vector_10" d="M38.8388 31.5326C38.4712 32.1327 38.1266 32.7467 37.806 33.3732C37.649 33.6801 37.4976 33.99 37.3517 34.3023C37.2809 34.4539 37.215 34.6082 37.1396 34.7575C37.065 34.905 36.9728 35.0347 36.8724 35.1656C36.9793 35.0272 37.0863 34.8889 37.1932 34.7505C36.8739 35.1628 36.5301 35.5573 36.2342 35.9873C36.1367 36.1291 36.0489 36.277 35.9771 36.4335C35.8305 36.7532 35.6837 37.0848 35.5876 37.4257C35.5425 37.5855 35.5071 37.748 35.4774 37.9113C35.4069 38.298 35.3335 38.6902 35.3424 39.0838C35.3507 39.4498 35.3733 39.8153 35.3851 40.1812C35.3984 40.5912 35.3898 40.9997 35.3351 41.4067C35.3662 41.1757 35.3972 40.9446 35.4283 40.7136C35.3332 41.3863 35.1084 42.0289 34.9483 42.6871C34.8149 43.2357 34.7429 43.8084 34.7361 44.3736C34.7326 44.6716 34.7452 44.9699 34.7091 45.2665C34.7412 45.0272 34.7734 44.7879 34.8055 44.5486C34.7783 44.7502 34.7272 44.9444 34.65 45.1326L34.9236 44.4841C34.8235 44.7166 34.6892 44.9286 34.5355 45.1291L34.9628 44.5761C34.7772 44.8148 34.5846 45.0476 34.3997 45.287C34.215 45.5261 34.0163 45.7599 33.8888 46.0364C33.7533 46.3304 33.6098 46.6315 33.5173 46.9435C33.5019 46.9956 33.4883 47.0485 33.4777 47.1018C33.4209 47.3863 33.3818 47.6867 33.3587 47.9752C33.3195 48.4633 33.4488 48.9489 33.5203 49.4292C33.4875 49.185 33.4547 48.9408 33.4218 48.6966C33.4458 48.8804 33.4365 49.0575 33.4131 49.2408L33.5099 48.52C33.4647 48.8465 33.3799 49.1636 33.2541 49.4684L33.5194 48.8398C33.4636 48.9713 33.4019 49.0999 33.3327 49.2248C33.1643 49.5289 33.0543 49.8603 32.9222 50.1811C33.0066 49.9811 33.0909 49.7811 33.1753 49.5811C33.0863 49.7919 32.987 50.0067 32.8591 50.1971L33.2205 49.7293C33.0849 49.8712 32.9436 50.0087 32.7897 50.1308C32.9426 50.0126 33.0955 49.8945 33.2484 49.7763C32.7963 50.1253 32.2608 50.3343 31.7472 50.5734C31.4989 50.689 31.2421 50.8082 31.0209 50.9715C30.5253 51.3372 30.628 51.2487 30.2588 51.7387C30.2406 51.7629 30.2222 51.787 30.2046 51.8117C30.1688 51.8618 30.1349 51.9133 30.1034 51.9663C29.9647 52.1995 29.8626 52.4673 29.7681 52.7162L29.7038 53.1954L29.7681 53.6746L29.9498 54.1051C30.0631 54.3152 30.2179 54.4838 30.4141 54.6109C30.5265 54.7226 30.6591 54.7998 30.8118 54.8426C30.9523 54.9242 31.104 54.9652 31.2666 54.9657C31.4264 55.0086 31.5861 55.0086 31.7458 54.9657C31.9857 54.9548 32.2091 54.8835 32.416 54.7518C32.4457 54.738 32.4756 54.7248 32.5058 54.712C32.3592 54.7739 32.2126 54.8357 32.066 54.8976C32.1764 54.8534 32.29 54.8197 32.4063 54.7951C32.4653 54.7827 32.5255 54.7761 32.5844 54.7638C32.8104 54.7165 33.0299 54.5875 33.2417 54.4964C33.0756 54.5665 32.9095 54.6366 32.7433 54.7067C33.2134 54.5096 33.7134 54.4018 34.1982 54.249C34.6085 54.1196 35.012 53.9557 35.3969 53.7649C35.795 53.5675 36.1415 53.2669 36.4891 52.998L36.0213 53.3594C36.1594 53.2838 36.3002 53.215 36.4345 53.1324C36.6478 53.0012 36.8413 52.8473 37.0395 52.6941C37.2143 52.5591 37.3215 52.4851 37.4443 52.328C37.6138 52.111 37.8 51.8828 37.9607 51.6511C38.0527 51.5186 38.1365 51.3804 38.2107 51.2372C38.3834 50.904 38.5254 50.5507 38.6575 50.2006C38.7149 50.0486 38.765 49.892 38.8004 49.7333C38.8926 49.3205 38.9423 48.8957 38.9316 48.4729C38.9266 48.2748 38.8916 48.0828 38.911 47.8838C38.878 48.1293 38.845 48.3748 38.8121 48.6203C38.8353 48.4506 38.8798 48.2873 38.9456 48.1292C38.853 48.3488 38.7603 48.5685 38.6676 48.7881C38.8038 48.4778 39.0174 48.2188 39.2133 47.9457C39.3179 47.8001 39.4154 47.6494 39.4963 47.4892C39.6785 47.1283 39.859 46.7409 39.956 46.3437C40.0864 45.8094 40.1358 45.2498 40.1095 44.7007C40.0923 44.3421 40.0772 43.9869 40.1241 43.6296C40.0925 43.8654 40.0608 44.1012 40.0291 44.337C40.0801 43.982 40.1675 43.6318 40.2477 43.2825C40.3702 42.7483 40.4473 42.2218 40.5189 41.6762C40.6121 40.9656 40.5497 40.2649 40.4851 39.5551C40.4663 39.3482 40.4504 39.1413 40.4365 38.9341C40.4083 38.5142 40.3111 38.1088 40.2538 37.6941L40.3414 38.3465C40.3025 38.0491 40.2836 37.7496 40.3235 37.4512L40.2415 38.0614C40.303 37.6479 40.453 37.2583 40.5834 36.8634C40.7243 36.4366 40.8407 36.003 40.9661 35.5715C41.2361 34.6422 41.5527 33.7269 41.9184 32.8309C41.9886 32.607 41.9987 32.383 41.9485 32.159C41.9384 31.9348 41.8717 31.726 41.7486 31.5326L41.4851 31.1916C41.3325 31.0273 41.1518 30.9111 40.9429 30.8432C40.8115 30.767 40.6697 30.7287 40.5177 30.7282C40.2937 30.678 40.0697 30.6881 39.8458 30.7583C39.4228 30.8952 39.0743 31.1481 38.8388 31.5326Z" fill="var(--fill-0, black)"/>
<path id="Vector_11" d="M162.393 29.0511C162.443 29.0493 162.492 29.0515 162.541 29.0582L162.188 29.0107C162.24 29.0193 162.29 29.0333 162.34 29.0526L162.013 28.9146C162.073 28.9402 162.128 28.9733 162.181 29.0128L161.894 28.7912C161.959 28.843 162.015 28.9028 162.066 28.9683C161.989 28.8685 161.912 28.7688 161.835 28.669C161.918 28.7806 161.982 28.9038 162.037 29.0317C161.984 28.9058 161.931 28.7799 161.878 28.654C162.027 29.013 162.098 29.4016 162.149 29.7852C162.127 29.6197 162.105 29.4541 162.083 29.2885C162.122 29.5879 162.144 29.8891 162.16 30.1906C162.175 30.4921 162.202 30.7934 162.27 31.0884C162.331 31.354 162.378 31.6219 162.415 31.8919C162.388 31.6959 162.362 31.4999 162.336 31.3039C162.487 32.4662 162.425 33.6425 162.328 34.8066C162.279 35.4063 162.217 36.0036 162.192 36.6051C162.167 37.2147 162.159 37.8249 162.145 38.4348C162.118 39.7095 162.092 40.9843 162.06 42.2589C162.048 42.7606 161.966 43.2572 161.942 43.7583C161.92 44.2367 161.988 44.684 162.058 45.1621C162.073 45.2668 162.093 45.3706 162.123 45.4719C162.198 45.7156 162.376 46.148 162.441 46.2439C162.596 46.4697 162.767 46.685 162.941 46.8956C163.017 46.9877 163.101 47.0722 163.193 47.1482C163.443 47.3543 163.7 47.5692 163.98 47.7376C164.348 47.9581 164.764 48.1117 165.159 48.2657C165.38 48.3517 165.605 48.4436 165.836 48.4947C166.054 48.5427 166.27 48.599 166.476 48.6852L167.018 48.758L167.56 48.6852C167.722 48.6168 167.884 48.5483 168.047 48.4798C168.284 48.3518 168.475 48.1768 168.618 47.955C168.744 47.8279 168.832 47.678 168.88 47.5055C168.972 47.3466 169.019 47.1752 169.019 46.9913C169.068 46.8107 169.068 46.6301 169.019 46.4496C169.007 46.1784 168.926 45.9259 168.777 45.692C168.613 45.4003 168.391 45.1401 168.187 44.878C168.075 44.7347 167.963 44.6032 167.825 44.4836C167.558 44.2498 167.289 44.0148 167.07 43.7336L167.468 44.2496C167.364 44.1125 167.275 43.9669 167.206 43.809C167.295 44.0197 167.384 44.2305 167.473 44.4412C167.45 44.3865 167.43 44.3311 167.412 44.2744C167.329 44.002 167.211 43.7503 167.097 43.4846L167.369 44.1303C167.301 43.9668 167.261 43.7964 167.236 43.6213C167.268 43.8598 167.3 44.0983 167.332 44.3368C167.257 43.7554 167.331 43.1697 167.349 42.5872C167.372 41.8757 167.328 41.1578 167.312 40.4462C167.279 38.9897 167.247 37.5338 167.233 36.0771C167.226 35.3848 167.191 34.6886 167.147 33.9977C167.091 33.1187 166.993 32.2358 166.828 31.3707C166.766 31.0485 166.69 30.7289 166.596 30.4146C166.479 30.0227 166.341 29.591 166.135 29.2427C165.941 28.9127 165.74 28.5865 165.515 28.276C165.088 27.6855 164.661 27.1653 164.052 26.7568C163.367 26.2981 162.461 26.2265 161.74 26.6415C161.497 26.7817 161.319 27.0046 161.211 27.2598C161.103 27.5167 161.058 27.8289 161.146 28.1018C161.215 28.3151 161.327 28.5072 161.479 28.6724C161.69 28.902 162.083 29.0623 162.393 29.0511Z" fill="var(--fill-0, black)"/>
<path id="Vector_12" d="M60.6137 57.328C60.7587 57.1646 60.9036 57.0012 61.0485 56.8378C61.2319 56.6675 61.3616 56.4657 61.4374 56.2325C61.5552 56.0084 61.6092 55.7668 61.5994 55.5079C61.6092 55.2489 61.5552 55.0074 61.4374 54.7832C61.3616 54.55 61.2319 54.3483 61.0485 54.1779C60.9216 54.0799 60.7947 53.9818 60.6679 53.8838C60.3745 53.7137 60.0581 53.6281 59.7186 53.627C59.5519 53.6494 59.3852 53.6718 59.2186 53.6942C58.8999 53.7835 58.6233 53.9448 58.3886 54.1779C58.2252 54.3228 58.0618 54.4677 57.8984 54.6127C57.7112 54.7866 57.5788 54.9926 57.5014 55.2306C57.3812 55.4594 57.3261 55.706 57.336 55.9703C57.3261 56.2347 57.3812 56.4813 57.5014 56.7101C57.5788 56.9481 57.7112 57.1541 57.8984 57.328C58.0279 57.4281 58.1575 57.5281 58.287 57.6282C58.5865 57.8019 58.9095 57.8893 59.2561 57.8904C59.4262 57.8675 59.5964 57.8446 59.7665 57.8218C60.0918 57.7306 60.3742 57.566 60.6137 57.328Z" fill="var(--fill-0, black)"/>
<path id="Vector_13" d="M70.0664 49.0253C70.08 49.0231 70.0936 49.0211 70.1072 49.0192C69.896 49.0476 69.6848 49.076 69.4736 49.1044C69.5754 49.0915 69.6777 49.0897 69.7796 49.1029C69.5726 49.0751 69.3657 49.0473 69.1587 49.0195C69.2039 49.0259 69.2476 49.0359 69.292 49.0463C69.4905 49.0927 70.0564 49.1268 69.9249 49.1327C70.1296 49.1052 70.3343 49.0777 70.539 49.0502C70.5437 49.0491 70.5485 49.048 70.5533 49.047C70.5703 49.0436 70.5872 49.0406 70.6043 49.0382C70.4046 49.065 70.2049 49.0919 70.0051 49.1187C70.085 49.1084 70.1652 49.1074 70.2451 49.1181C70.0622 49.0936 69.8792 49.069 69.6962 49.0444C69.7431 49.0511 69.7893 49.0604 69.8352 49.0721C70.1824 49.1655 70.5296 49.1655 70.8768 49.0721C71.1318 49.0115 71.3539 48.8946 71.5431 48.7215C71.7564 48.5833 71.9246 48.4001 72.0477 48.1718C72.225 47.8662 72.3141 47.5366 72.3152 47.1829C72.3158 47.143 72.3148 47.1031 72.3109 47.0634C72.2913 46.8661 72.2614 46.6646 72.2314 46.4687C72.2285 46.4498 72.2254 46.4309 72.2216 46.4121C72.2141 46.3746 72.2044 46.3374 72.192 46.3012C72.1183 46.0857 72.0251 45.8765 71.9268 45.6711C71.759 45.3204 71.3926 45.0193 71.0754 44.8161C71.0557 44.8034 71.0356 44.7912 71.0151 44.7798C70.8081 44.6649 70.53 44.5651 70.3459 44.4912C70.2557 44.455 70.1625 44.4302 70.0665 44.4155C69.6428 44.3017 69.2192 44.3017 68.7956 44.4155C68.3907 44.5291 68.0391 44.734 67.7409 45.0302L67.3671 45.514C67.1509 45.8868 67.0421 46.2889 67.0408 46.7204C67.0284 47.0495 67.097 47.3565 67.2467 47.6413C67.3431 47.9376 67.5078 48.1941 67.7409 48.4106C68.0391 48.7068 68.3907 48.9117 68.7956 49.0253C69.2192 49.1391 69.6428 49.1391 70.0664 49.0253Z" fill="var(--fill-0, black)"/>
<path id="Vector_14" d="M73.5935 62.8211C74.0456 62.8211 74.5206 62.6244 74.8403 62.3047C75.0123 62.1449 75.1338 61.9558 75.2049 61.7372C75.3153 61.527 75.366 61.3006 75.3568 61.0578C75.3364 60.6018 75.1866 60.1288 74.8403 59.811C74.4953 59.4943 74.0713 59.2945 73.5935 59.2945C73.1414 59.2945 72.6664 59.4912 72.3466 59.811C72.1747 59.9707 72.0532 60.1599 71.982 60.3785C71.8716 60.5886 71.821 60.8151 71.8302 61.0578C71.8506 61.5138 72.0004 61.9868 72.3466 62.3047C72.6916 62.6214 73.1157 62.8211 73.5935 62.8211Z" fill="var(--fill-0, black)"/>
<path id="Vector_15" d="M87.8018 53.942C87.9455 53.9042 88.0893 53.8664 88.233 53.8286L88.5044 53.7141C88.6369 53.6427 88.7431 53.5451 88.8233 53.4214C88.8937 53.3505 88.9424 53.2669 88.9694 53.1707C89.0405 53.0352 89.0731 52.8893 89.0672 52.7328L89.0266 52.4308L88.9121 52.1593C88.8407 52.0269 88.7431 51.9206 88.6194 51.8405C88.5096 51.7401 88.3808 51.6723 88.233 51.6371L87.8017 51.5237C87.5795 51.464 87.3573 51.464 87.135 51.5237C86.9226 51.5833 86.7382 51.6908 86.5817 51.8462C86.5164 51.9308 86.451 52.0154 86.3857 52.1C86.2723 52.2956 86.2152 52.5065 86.2145 52.7328C86.208 52.9055 86.244 53.0665 86.3225 53.2159C86.373 53.3714 86.4595 53.5059 86.5817 53.6195C86.7382 53.7749 86.9226 53.8824 87.135 53.9419C87.3573 54.0017 87.5795 54.0017 87.8018 53.942Z" fill="var(--fill-0, black)"/>
<path id="Vector_16" d="M133.256 131.474C133.59 131.487 133.902 131.417 134.192 131.265C134.493 131.167 134.753 131 134.974 130.763C135.21 130.543 135.378 130.282 135.476 129.981C135.628 129.691 135.698 129.379 135.685 129.045C135.656 128.83 135.627 128.614 135.598 128.399C135.483 127.988 135.275 127.63 134.974 127.327C134.498 126.891 133.914 126.616 133.256 126.616C132.921 126.603 132.609 126.673 132.32 126.825C132.019 126.923 131.758 127.09 131.538 127.327C131.301 127.547 131.133 127.808 131.036 128.109C130.883 128.399 130.814 128.711 130.826 129.045L130.913 129.691C131.028 130.102 131.237 130.46 131.538 130.763C132.013 131.199 132.597 131.474 133.256 131.474Z" fill="var(--fill-0, black)"/>
<path id="Vector_17" d="M143.431 125.156C143.787 125.17 144.119 125.095 144.427 124.933C144.748 124.829 145.025 124.651 145.259 124.399C145.512 124.164 145.69 123.887 145.794 123.566C145.956 123.258 146.03 122.926 146.017 122.57L145.924 121.882C145.802 121.444 145.58 121.064 145.259 120.741C144.753 120.277 144.131 119.984 143.431 119.984C143.075 119.97 142.742 120.045 142.434 120.207C142.114 120.311 141.836 120.489 141.602 120.741C141.35 120.976 141.172 121.253 141.067 121.574C140.905 121.882 140.831 122.214 140.844 122.57C140.875 122.799 140.906 123.028 140.937 123.258C141.06 123.696 141.281 124.076 141.602 124.399C142.108 124.863 142.73 125.156 143.431 125.156Z" fill="var(--fill-0, black)"/>
<path id="Vector_18" d="M147.131 142.7C147.546 142.715 147.934 142.629 148.293 142.44C148.667 142.318 148.991 142.11 149.264 141.816C149.558 141.543 149.766 141.219 149.888 140.845C150.077 140.485 150.163 140.098 150.148 139.682C150.112 139.415 150.076 139.148 150.04 138.88C149.897 138.369 149.638 137.925 149.264 137.549L148.653 137.077C148.183 136.804 147.675 136.667 147.131 136.665C146.715 136.65 146.328 136.736 145.968 136.925C145.594 137.047 145.27 137.255 144.997 137.549C144.703 137.822 144.495 138.146 144.373 138.52C144.184 138.88 144.098 139.267 144.113 139.682C144.149 139.95 144.185 140.217 144.221 140.485C144.365 140.996 144.623 141.439 144.997 141.816C145.201 141.973 145.404 142.13 145.608 142.288C146.078 142.561 146.586 142.698 147.131 142.7Z" fill="var(--fill-0, black)"/>
</g>
</svg>
